<svg width="243" height="186" viewBox="0 0 243 186" fill="none" xmlns="http://www.w3.org/2000/svg">
<g filter="url(#filter0_d_438_16672)">
<path d="M9 20C9 8.95431 17.9543 0 29 0H214C225.046 0 234 8.95431 234 20V148C234 159.046 225.046 168 214 168H29C17.9543 168 9 159.046 9 148V20Z" fill="#9B59B6"/>
</g>
<path d="M76.6967 40.704C76.8247 40.944 76.8887 41.152 76.8887 41.328C76.9047 41.488 76.8567 41.64 76.7447 41.784C76.6327 41.912 76.4567 42.032 76.2167 42.144C75.8327 42.32 75.5287 42.36 75.3047 42.264C75.0967 42.168 74.9047 41.936 74.7287 41.568L68.7287 28.8L62.7767 41.544C62.6007 41.912 62.4007 42.144 62.1767 42.24C61.9687 42.336 61.6647 42.296 61.2647 42.12C61.0247 42.024 60.8487 41.904 60.7367 41.76C60.6407 41.616 60.6007 41.44 60.6167 41.232C60.6487 41.024 60.7287 40.784 60.8567 40.512L67.7447 26.136C67.8407 25.944 67.9767 25.792 68.1527 25.68C68.3447 25.552 68.5447 25.488 68.7527 25.488C68.8967 25.488 69.0327 25.512 69.1607 25.56C69.2887 25.608 69.4007 25.68 69.4967 25.776C69.5927 25.872 69.6727 26 69.7367 26.16L76.6967 40.704ZM64.2167 37.464L65.0327 35.616H72.4727L73.2647 37.464H64.2167ZM86.7791 42.288C85.9151 42.288 85.0751 42.16 84.2591 41.904C83.4431 41.648 82.6831 41.28 81.9791 40.8C81.2751 40.32 80.6511 39.728 80.1071 39.024C79.5791 38.304 79.1631 37.504 78.8591 36.624C78.5551 35.728 78.4031 34.744 78.4031 33.672C78.4031 32.648 78.5551 31.704 78.8591 30.84C79.1631 29.96 79.5791 29.184 80.1071 28.512C80.6351 27.84 81.2511 27.272 81.9551 26.808C82.6751 26.328 83.4431 25.968 84.2591 25.728C85.0911 25.472 85.9391 25.344 86.8031 25.344C87.6031 25.344 88.2911 25.424 88.8671 25.584C89.4431 25.744 89.9151 25.92 90.2831 26.112C90.6511 26.288 90.8991 26.424 91.0271 26.52C91.2511 26.648 91.4671 26.8 91.6751 26.976C91.8831 27.152 91.9951 27.36 92.0111 27.6C92.0431 27.776 92.0271 27.92 91.9631 28.032C91.9151 28.144 91.8511 28.264 91.7711 28.392C91.6431 28.584 91.5071 28.728 91.3631 28.824C91.2351 28.904 91.0911 28.944 90.9311 28.944C90.7711 28.944 90.6271 28.896 90.4991 28.8C90.3711 28.704 90.2031 28.592 89.9951 28.464C89.8991 28.4 89.7071 28.296 89.4191 28.152C89.1311 28.008 88.7631 27.872 88.3151 27.744C87.8671 27.6 87.3231 27.528 86.6831 27.528C85.8671 27.528 85.0831 27.68 84.3311 27.984C83.5951 28.272 82.9471 28.688 82.3871 29.232C81.8271 29.776 81.3871 30.432 81.0671 31.2C80.7471 31.968 80.5871 32.832 80.5871 33.792C80.5871 34.768 80.7471 35.648 81.0671 36.432C81.3871 37.2 81.8271 37.856 82.3871 38.4C82.9631 38.944 83.6191 39.36 84.3551 39.648C85.0911 39.936 85.8671 40.08 86.6831 40.08C87.2911 40.08 87.8191 40.016 88.2671 39.888C88.7311 39.76 89.1071 39.624 89.3951 39.48C89.6991 39.32 89.9071 39.2 90.0191 39.12C90.1951 39.024 90.3471 38.928 90.4751 38.832C90.6191 38.736 90.7711 38.688 90.9311 38.688C91.0911 38.688 91.2351 38.736 91.3631 38.832C91.5071 38.912 91.6431 39.048 91.7711 39.24C91.8511 39.352 91.9151 39.48 91.9631 39.624C92.0271 39.752 92.0431 39.896 92.0111 40.056C91.9951 40.296 91.8831 40.504 91.6751 40.68C91.4671 40.84 91.2511 40.992 91.0271 41.136C90.8831 41.2 90.6271 41.336 90.2591 41.544C89.9071 41.736 89.4431 41.904 88.8671 42.048C88.2911 42.208 87.5951 42.288 86.7791 42.288ZM107.299 25.488C107.507 25.488 107.675 25.512 107.803 25.56C107.947 25.608 108.059 25.704 108.139 25.848C108.219 25.976 108.259 26.192 108.259 26.496C108.259 26.784 108.211 27 108.115 27.144C108.035 27.288 107.923 27.384 107.779 27.432C107.635 27.464 107.459 27.48 107.251 27.48H102.283V41.184C102.283 41.392 102.251 41.576 102.187 41.736C102.139 41.896 102.035 42.016 101.875 42.096C101.731 42.192 101.507 42.24 101.203 42.24C100.883 42.24 100.643 42.192 100.483 42.096C100.339 42.016 100.243 41.896 100.195 41.736C100.163 41.56 100.147 41.368 100.147 41.16V27.48H95.1069C94.8989 27.48 94.7229 27.464 94.5789 27.432C94.4349 27.384 94.3229 27.288 94.2429 27.144C94.1629 27 94.1229 26.784 94.1229 26.496C94.1229 26.192 94.1549 25.976 94.2189 25.848C94.2989 25.704 94.4109 25.608 94.5549 25.56C94.7149 25.512 94.8909 25.488 95.0829 25.488H107.299ZM111.74 42.24C111.42 42.24 111.18 42.192 111.02 42.096C110.876 42.016 110.78 41.896 110.732 41.736C110.684 41.56 110.66 41.36 110.66 41.136V26.568C110.66 26.344 110.684 26.152 110.732 25.992C110.796 25.832 110.9 25.712 111.044 25.632C111.204 25.536 111.444 25.488 111.764 25.488C112.084 25.488 112.316 25.536 112.46 25.632C112.62 25.712 112.716 25.832 112.748 25.992C112.796 26.152 112.82 26.352 112.82 26.592V41.16C112.82 41.384 112.796 41.576 112.748 41.736C112.7 41.896 112.596 42.016 112.436 42.096C112.292 42.192 112.06 42.24 111.74 42.24ZM119.43 42.24C119.142 42.24 118.902 42.192 118.71 42.096C118.534 42.016 118.398 41.872 118.302 41.664L112.23 26.832C112.07 26.448 112.038 26.176 112.134 26.016C112.246 25.856 112.478 25.688 112.83 25.512C113.054 25.4 113.246 25.344 113.406 25.344C113.582 25.328 113.734 25.376 113.862 25.488C114.006 25.584 114.126 25.752 114.222 25.992L119.43 39.216L124.614 26.208C124.71 25.952 124.814 25.752 124.926 25.608C125.054 25.448 125.214 25.36 125.406 25.344C125.598 25.312 125.838 25.376 126.126 25.536C126.574 25.744 126.798 25.976 126.798 26.232C126.798 26.472 126.734 26.744 126.606 27.048L120.558 41.64C120.478 41.832 120.342 41.976 120.15 42.072C119.958 42.184 119.718 42.24 119.43 42.24ZM130.701 42.24C130.381 42.24 130.141 42.192 129.981 42.096C129.837 42.016 129.741 41.896 129.693 41.736C129.645 41.56 129.621 41.36 129.621 41.136V26.568C129.621 26.344 129.645 26.152 129.693 25.992C129.757 25.832 129.861 25.712 130.005 25.632C130.165 25.536 130.405 25.488 130.725 25.488C131.045 25.488 131.277 25.536 131.421 25.632C131.581 25.712 131.677 25.832 131.709 25.992C131.757 26.152 131.781 26.352 131.781 26.592V41.16C131.781 41.384 131.757 41.576 131.709 41.736C131.661 41.896 131.557 42.016 131.397 42.096C131.253 42.192 131.021 42.24 130.701 42.24ZM147.401 25.488C147.609 25.488 147.777 25.512 147.905 25.56C148.049 25.608 148.161 25.704 148.241 25.848C148.321 25.976 148.361 26.192 148.361 26.496C148.361 26.784 148.313 27 148.217 27.144C148.137 27.288 148.025 27.384 147.881 27.432C147.737 27.464 147.561 27.48 147.353 27.48H142.385V41.184C142.385 41.392 142.353 41.576 142.289 41.736C142.241 41.896 142.137 42.016 141.977 42.096C141.833 42.192 141.609 42.24 141.305 42.24C140.985 42.24 140.745 42.192 140.585 42.096C140.441 42.016 140.345 41.896 140.297 41.736C140.265 41.56 140.249 41.368 140.249 41.16V27.48H135.209C135.001 27.48 134.825 27.464 134.681 27.432C134.537 27.384 134.425 27.288 134.345 27.144C134.265 27 134.225 26.784 134.225 26.496C134.225 26.192 134.257 25.976 134.321 25.848C134.401 25.704 134.513 25.608 134.657 25.56C134.817 25.512 134.993 25.488 135.185 25.488H147.401ZM151.842 42.24C151.522 42.24 151.282 42.192 151.122 42.096C150.978 42.016 150.882 41.896 150.834 41.736C150.786 41.56 150.762 41.36 150.762 41.136V26.568C150.762 26.344 150.786 26.152 150.834 25.992C150.898 25.832 151.002 25.712 151.146 25.632C151.306 25.536 151.546 25.488 151.866 25.488C152.186 25.488 152.418 25.536 152.562 25.632C152.722 25.712 152.818 25.832 152.85 25.992C152.898 26.152 152.922 26.352 152.922 26.592V41.16C152.922 41.384 152.898 41.576 152.85 41.736C152.802 41.896 152.698 42.016 152.538 42.096C152.394 42.192 152.162 42.24 151.842 42.24ZM157.357 42.24C157.037 42.24 156.797 42.192 156.637 42.096C156.493 42.016 156.397 41.896 156.349 41.736C156.301 41.56 156.277 41.36 156.277 41.136V26.568C156.277 26.152 156.357 25.872 156.517 25.728C156.693 25.568 156.997 25.488 157.429 25.488H167.077C167.301 25.488 167.493 25.512 167.653 25.56C167.813 25.608 167.933 25.712 168.013 25.872C168.093 26.032 168.133 26.272 168.133 26.592C168.133 26.912 168.085 27.152 167.989 27.312C167.909 27.456 167.789 27.552 167.629 27.6C167.469 27.648 167.277 27.672 167.053 27.672H158.437V32.64H164.437C164.661 32.64 164.845 32.664 164.989 32.712C165.149 32.76 165.269 32.856 165.349 33C165.429 33.144 165.469 33.368 165.469 33.672C165.469 33.96 165.429 34.176 165.349 34.32C165.269 34.464 165.149 34.56 164.989 34.608C164.829 34.64 164.629 34.656 164.389 34.656H158.437V40.08H167.077C167.301 40.08 167.493 40.104 167.653 40.152C167.813 40.2 167.933 40.304 168.013 40.464C168.093 40.608 168.133 40.84 168.133 41.16C168.133 41.48 168.085 41.72 167.989 41.88C167.909 42.024 167.789 42.12 167.629 42.168C167.469 42.216 167.277 42.24 167.053 42.24H157.357ZM175.91 42.48C175.302 42.48 174.726 42.408 174.182 42.264C173.654 42.12 173.166 41.928 172.718 41.688C172.286 41.432 171.902 41.152 171.566 40.848C171.23 40.544 170.966 40.24 170.774 39.936C170.598 39.68 170.486 39.472 170.438 39.312C170.39 39.136 170.398 38.968 170.462 38.808C170.542 38.648 170.694 38.472 170.918 38.28C171.174 38.088 171.398 38 171.59 38.016C171.782 38.016 171.958 38.088 172.118 38.232C172.294 38.376 172.47 38.568 172.646 38.808C173.046 39.352 173.534 39.752 174.11 40.008C174.686 40.248 175.254 40.368 175.814 40.368C176.534 40.368 177.174 40.272 177.734 40.08C178.294 39.888 178.734 39.6 179.054 39.216C179.39 38.816 179.558 38.304 179.558 37.68C179.558 37.168 179.43 36.736 179.174 36.384C178.918 36.032 178.574 35.736 178.142 35.496C177.71 35.24 177.23 35.024 176.702 34.848C176.174 34.656 175.638 34.472 175.094 34.296C174.662 34.152 174.238 33.992 173.822 33.816C173.406 33.624 173.014 33.416 172.646 33.192C172.278 32.952 171.95 32.672 171.662 32.352C171.39 32.032 171.174 31.656 171.014 31.224C170.87 30.792 170.798 30.288 170.798 29.712C170.798 28.832 171.006 28.056 171.422 27.384C171.854 26.712 172.454 26.192 173.222 25.824C173.99 25.44 174.878 25.248 175.886 25.248C176.478 25.248 177.022 25.304 177.518 25.416C178.014 25.528 178.454 25.68 178.838 25.872C179.222 26.048 179.55 26.24 179.822 26.448C180.094 26.64 180.302 26.824 180.446 27C180.734 27.304 180.894 27.56 180.926 27.768C180.958 27.976 180.838 28.232 180.566 28.536C180.31 28.824 180.062 28.976 179.822 28.992C179.582 29.008 179.318 28.896 179.03 28.656C178.726 28.304 178.406 28.032 178.07 27.84C177.75 27.648 177.406 27.52 177.038 27.456C176.686 27.376 176.294 27.336 175.862 27.336C175.446 27.336 175.054 27.392 174.686 27.504C174.334 27.6 174.022 27.752 173.75 27.96C173.494 28.168 173.294 28.424 173.15 28.728C173.006 29.016 172.934 29.352 172.934 29.736C172.934 30.168 173.046 30.536 173.27 30.84C173.51 31.144 173.822 31.408 174.206 31.632C174.59 31.84 175.022 32.032 175.502 32.208C175.982 32.368 176.486 32.528 177.014 32.688C177.59 32.864 178.158 33.08 178.718 33.336C179.278 33.576 179.782 33.88 180.23 34.248C180.678 34.6 181.038 35.048 181.31 35.592C181.582 36.136 181.718 36.808 181.718 37.608C181.718 38.408 181.558 39.112 181.238 39.72C180.934 40.328 180.51 40.84 179.966 41.256C179.422 41.656 178.798 41.96 178.094 42.168C177.406 42.376 176.678 42.48 175.91 42.48Z" fill="white"/>
<g filter="url(#filter1_d_438_16672)">
<rect x="20" y="61" width="202" height="47" rx="23.5" fill="#8722B0"/>
<path d="M71.808 89.16C71.6053 89.16 71.4507 89.128 71.344 89.064C71.248 89.0107 71.184 88.9307 71.152 88.824C71.12 88.7067 71.104 88.5733 71.104 88.424V78.712C71.104 78.5733 71.12 78.4507 71.152 78.344C71.1947 78.2373 71.2693 78.152 71.376 78.088C71.4827 78.024 71.632 77.992 71.824 77.992H75.328C75.84 77.992 76.3093 78.072 76.736 78.232C77.1733 78.3813 77.552 78.616 77.872 78.936C78.2027 79.2453 78.4587 79.624 78.64 80.072C78.8213 80.52 78.912 81.0373 78.912 81.624C78.912 82.2 78.8213 82.712 78.64 83.16C78.4587 83.608 78.2027 83.9867 77.872 84.296C77.5413 84.5947 77.1573 84.824 76.72 84.984C76.2933 85.144 75.824 85.224 75.312 85.224H72.56V88.44C72.56 88.5893 72.5387 88.7173 72.496 88.824C72.464 88.9307 72.3947 89.0107 72.288 89.064C72.192 89.128 72.032 89.16 71.808 89.16ZM72.56 83.768H75.328C75.7547 83.768 76.128 83.688 76.448 83.528C76.768 83.3573 77.0187 83.112 77.2 82.792C77.3813 82.4613 77.472 82.0613 77.472 81.592C77.472 81.144 77.3867 80.76 77.216 80.44C77.0453 80.12 76.7947 79.8747 76.464 79.704C76.144 79.5333 75.76 79.448 75.312 79.448H72.56V83.768ZM83.0494 89.16C82.708 89.16 82.3987 89.128 82.1214 89.064C81.8547 89.0107 81.62 88.92 81.4174 88.792C81.2147 88.664 81.044 88.4987 80.9054 88.296C80.7774 88.0933 80.6814 87.848 80.6174 87.56C80.564 87.272 80.5374 86.936 80.5374 86.552V78.552C80.5374 78.392 80.548 78.2587 80.5694 78.152C80.6014 78.0453 80.6707 77.9653 80.7774 77.912C80.884 77.848 81.0334 77.816 81.2254 77.816C81.4387 77.816 81.5934 77.8427 81.6894 77.896C81.796 77.9493 81.8654 78.0293 81.8974 78.136C81.9294 78.2427 81.9454 78.3707 81.9454 78.52V86.536C81.9454 86.7493 81.9667 86.936 82.0094 87.096C82.052 87.2453 82.116 87.3733 82.2014 87.48C82.2974 87.5867 82.4147 87.6613 82.5534 87.704C82.692 87.7467 82.8574 87.768 83.0494 87.768C83.1774 87.768 83.284 87.784 83.3694 87.816C83.4654 87.848 83.54 87.912 83.5934 88.008C83.6467 88.104 83.6734 88.2533 83.6734 88.456C83.6734 88.6693 83.6467 88.8293 83.5934 88.936C83.54 89.032 83.4654 89.0907 83.3694 89.112C83.284 89.144 83.1774 89.16 83.0494 89.16ZM91.7094 89.144C91.4747 89.144 91.304 89.096 91.1974 89C91.1014 88.904 91.0427 88.7547 91.0214 88.552L91.0854 87.752C90.9787 87.9227 90.8134 88.12 90.5894 88.344C90.3654 88.5573 90.072 88.7493 89.7094 88.92C89.3467 89.08 88.904 89.16 88.3814 89.16C87.8694 89.16 87.3894 89.0587 86.9414 88.856C86.504 88.6533 86.1147 88.3707 85.7734 88.008C85.4427 87.6453 85.1814 87.2293 84.9894 86.76C84.808 86.2907 84.7174 85.7893 84.7174 85.256C84.7174 84.7333 84.808 84.2427 84.9894 83.784C85.1814 83.3147 85.448 82.904 85.7894 82.552C86.1307 82.2 86.52 81.9227 86.9574 81.72C87.4054 81.5173 87.88 81.416 88.3814 81.416C88.8507 81.416 89.2507 81.48 89.5814 81.608C89.912 81.7253 90.1947 81.8853 90.4294 82.088C90.6747 82.28 90.888 82.4987 91.0694 82.744L91.0374 82.072C91.0267 81.8373 91.0747 81.672 91.1814 81.576C91.2987 81.4693 91.48 81.416 91.7254 81.416C91.928 81.416 92.072 81.448 92.1574 81.512C92.2534 81.576 92.3174 81.6667 92.3494 81.784C92.3814 81.9013 92.3974 82.0453 92.3974 82.216V88.392C92.3974 88.5413 92.3814 88.6747 92.3494 88.792C92.3174 88.9093 92.2534 88.9947 92.1574 89.048C92.0614 89.112 91.912 89.144 91.7094 89.144ZM88.6214 87.816C89.048 87.816 89.4374 87.704 89.7894 87.48C90.152 87.256 90.4347 86.9573 90.6374 86.584C90.8507 86.2 90.9574 85.7627 90.9574 85.272C90.9574 84.7707 90.8454 84.3333 90.6214 83.96C90.408 83.576 90.12 83.2773 89.7574 83.064C89.4054 82.84 89.016 82.728 88.5894 82.728C88.088 82.728 87.6507 82.8453 87.2774 83.08C86.9147 83.304 86.6267 83.608 86.4134 83.992C86.2 84.376 86.0934 84.8133 86.0934 85.304C86.0934 85.784 86.2 86.216 86.4134 86.6C86.6267 86.9733 86.92 87.272 87.2934 87.496C87.6774 87.7093 88.12 87.816 88.6214 87.816ZM95.7044 92.264C95.4484 92.1573 95.299 92.0347 95.2564 91.896C95.2137 91.7573 95.251 91.5653 95.3684 91.32L99.6084 81.8C99.7257 81.5547 99.8484 81.4053 99.9764 81.352C100.115 81.288 100.307 81.3093 100.552 81.416C100.808 81.5333 100.952 81.6613 100.984 81.8C101.027 81.9387 100.995 82.1253 100.888 82.36L96.6164 91.928C96.5097 92.1733 96.3924 92.3173 96.2644 92.36C96.1364 92.4027 95.9497 92.3707 95.7044 92.264ZM97.2884 88.136L93.6244 82.488C93.4857 82.2747 93.4324 82.0987 93.4644 81.96C93.4964 81.8107 93.619 81.6667 93.8324 81.528C94.067 81.3787 94.2537 81.3253 94.3924 81.368C94.5417 81.4 94.691 81.5227 94.8404 81.736L97.9444 86.616L97.2884 88.136ZM116.272 88.136C116.357 88.296 116.4 88.4347 116.4 88.552C116.41 88.6587 116.378 88.76 116.304 88.856C116.229 88.9413 116.112 89.0213 115.952 89.096C115.696 89.2133 115.493 89.24 115.344 89.176C115.205 89.112 115.077 88.9573 114.96 88.712L110.96 80.2L106.992 88.696C106.874 88.9413 106.741 89.096 106.592 89.16C106.453 89.224 106.25 89.1973 105.984 89.08C105.824 89.016 105.706 88.936 105.632 88.84C105.568 88.744 105.541 88.6267 105.552 88.488C105.573 88.3493 105.626 88.1893 105.712 88.008L110.304 78.424C110.368 78.296 110.458 78.1947 110.576 78.12C110.704 78.0347 110.837 77.992 110.976 77.992C111.072 77.992 111.162 78.008 111.248 78.04C111.333 78.072 111.408 78.12 111.472 78.184C111.536 78.248 111.589 78.3333 111.632 78.44L116.272 88.136ZM107.952 85.976L108.496 84.744H113.456L113.984 85.976H107.952ZM120.859 89.192C120.304 89.192 119.782 89.1013 119.291 88.92C118.811 88.7387 118.384 88.4773 118.011 88.136C117.648 87.7947 117.36 87.3893 117.147 86.92C116.944 86.44 116.843 85.896 116.843 85.288C116.843 84.68 116.944 84.1413 117.147 83.672C117.36 83.192 117.648 82.7813 118.011 82.44C118.374 82.0987 118.795 81.8373 119.275 81.656C119.766 81.4747 120.283 81.384 120.827 81.384C121.19 81.384 121.547 81.4427 121.899 81.56C122.251 81.6667 122.56 81.8107 122.827 81.992C123.104 82.1627 123.302 82.344 123.419 82.536C123.526 82.6747 123.6 82.792 123.643 82.888C123.696 82.9733 123.702 83.0747 123.659 83.192C123.616 83.2773 123.558 83.3573 123.483 83.432C123.408 83.496 123.334 83.5493 123.259 83.592C123.067 83.7413 122.875 83.7627 122.683 83.656C122.566 83.5387 122.432 83.432 122.283 83.336C122.144 83.2293 121.995 83.1333 121.835 83.048C121.675 82.9627 121.51 82.8987 121.339 82.856C121.179 82.8027 121.008 82.776 120.827 82.776C120.326 82.776 119.883 82.8827 119.499 83.096C119.115 83.2987 118.816 83.592 118.603 83.976C118.4 84.3493 118.299 84.7867 118.299 85.288C118.299 85.7893 118.4 86.2267 118.603 86.6C118.816 86.9733 119.11 87.2667 119.483 87.48C119.867 87.6933 120.304 87.8 120.795 87.8C121.019 87.8 121.232 87.7733 121.435 87.72C121.648 87.656 121.846 87.576 122.027 87.48C122.208 87.3733 122.358 87.2613 122.475 87.144C122.582 87.0693 122.672 87.0053 122.747 86.952C122.822 86.8987 122.912 86.872 123.019 86.872C123.104 86.872 123.195 86.9093 123.291 86.984C123.387 87.048 123.488 87.1493 123.595 87.288C123.68 87.384 123.728 87.4853 123.739 87.592C123.76 87.6987 123.744 87.8 123.691 87.896C123.638 87.992 123.552 88.088 123.435 88.184C123.264 88.3547 123.035 88.52 122.747 88.68C122.47 88.8293 122.166 88.952 121.835 89.048C121.504 89.144 121.179 89.192 120.859 89.192ZM128.828 89.16C128.327 89.16 127.9 89.112 127.548 89.016C127.207 88.92 126.924 88.7707 126.7 88.568C126.476 88.3653 126.316 88.104 126.22 87.784C126.124 87.4533 126.076 87.048 126.076 86.568V79.496C126.076 79.3467 126.092 79.2187 126.124 79.112C126.156 79.0053 126.22 78.9253 126.316 78.872C126.412 78.808 126.561 78.776 126.764 78.776C126.967 78.776 127.121 78.808 127.228 78.872C127.335 78.9253 127.404 79.0053 127.436 79.112C127.468 79.208 127.484 79.3307 127.484 79.48V86.568C127.484 86.8453 127.505 87.0693 127.548 87.24C127.601 87.4 127.676 87.5227 127.772 87.608C127.879 87.6933 128.017 87.7467 128.188 87.768C128.359 87.7893 128.567 87.8 128.812 87.8C128.983 87.8 129.121 87.816 129.228 87.848C129.335 87.88 129.415 87.944 129.468 88.04C129.521 88.136 129.548 88.28 129.548 88.472C129.548 88.6747 129.516 88.8293 129.452 88.936C129.399 89.032 129.313 89.0907 129.196 89.112C129.089 89.144 128.967 89.16 128.828 89.16ZM125.244 81.592L126.78 81.608L129.004 81.576C129.153 81.576 129.281 81.592 129.388 81.624C129.495 81.6453 129.575 81.7093 129.628 81.816C129.692 81.912 129.724 82.0613 129.724 82.264C129.724 82.4667 129.697 82.6213 129.644 82.728C129.591 82.824 129.511 82.888 129.404 82.92C129.297 82.952 129.169 82.968 129.02 82.968L126.828 82.936L125.212 82.952C124.988 82.952 124.833 82.8987 124.748 82.792C124.673 82.6853 124.636 82.5093 124.636 82.264C124.636 82.0293 124.684 81.8587 124.78 81.752C124.876 81.6453 125.031 81.592 125.244 81.592ZM131.98 89.16C131.777 89.16 131.622 89.128 131.516 89.064C131.42 89.0107 131.356 88.9307 131.324 88.824C131.292 88.7173 131.276 88.5893 131.276 88.44V82.12C131.276 81.9707 131.292 81.8427 131.324 81.736C131.356 81.6293 131.42 81.5493 131.516 81.496C131.622 81.4427 131.782 81.416 131.996 81.416C132.198 81.416 132.348 81.448 132.444 81.512C132.54 81.5653 132.604 81.6453 132.636 81.752C132.668 81.8587 132.684 81.992 132.684 82.152V88.456C132.684 88.6053 132.668 88.7333 132.636 88.84C132.604 88.9467 132.534 89.0267 132.428 89.08C132.332 89.1333 132.182 89.16 131.98 89.16ZM131.98 79.496C131.745 79.496 131.569 79.464 131.452 79.4C131.334 79.3253 131.254 79.224 131.212 79.096C131.18 78.968 131.164 78.8187 131.164 78.648C131.164 78.4773 131.185 78.3333 131.228 78.216C131.27 78.088 131.35 77.9973 131.468 77.944C131.585 77.88 131.761 77.848 131.996 77.848C132.22 77.848 132.39 77.88 132.508 77.944C132.625 78.008 132.7 78.104 132.732 78.232C132.774 78.36 132.796 78.5093 132.796 78.68C132.796 78.8507 132.774 79 132.732 79.128C132.7 79.2453 132.625 79.336 132.508 79.4C132.39 79.464 132.214 79.496 131.98 79.496ZM138.054 89.192C137.872 89.192 137.723 89.1653 137.606 89.112C137.499 89.0587 137.408 88.9627 137.334 88.824L134.374 82.376C134.256 82.12 134.23 81.928 134.294 81.8C134.358 81.6613 134.507 81.5333 134.742 81.416C134.955 81.3093 135.136 81.2773 135.286 81.32C135.435 81.352 135.563 81.4907 135.67 81.736L138.054 87.416L140.39 81.896C140.507 81.6507 140.635 81.4747 140.774 81.368C140.912 81.2613 141.131 81.2827 141.43 81.432C141.718 81.5707 141.862 81.7307 141.862 81.912C141.862 82.0827 141.814 82.2693 141.718 82.472L138.774 88.808C138.72 88.936 138.635 89.032 138.518 89.096C138.4 89.16 138.246 89.192 138.054 89.192ZM144.151 89.16C143.949 89.16 143.794 89.128 143.687 89.064C143.591 89.0107 143.527 88.9307 143.495 88.824C143.463 88.7173 143.447 88.5893 143.447 88.44V82.12C143.447 81.9707 143.463 81.8427 143.495 81.736C143.527 81.6293 143.591 81.5493 143.687 81.496C143.794 81.4427 143.954 81.416 144.167 81.416C144.37 81.416 144.519 81.448 144.615 81.512C144.711 81.5653 144.775 81.6453 144.807 81.752C144.839 81.8587 144.855 81.992 144.855 82.152V88.456C144.855 88.6053 144.839 88.7333 144.807 88.84C144.775 88.9467 144.706 89.0267 144.599 89.08C144.503 89.1333 144.354 89.16 144.151 89.16ZM144.151 79.496C143.917 79.496 143.741 79.464 143.623 79.4C143.506 79.3253 143.426 79.224 143.383 79.096C143.351 78.968 143.335 78.8187 143.335 78.648C143.335 78.4773 143.357 78.3333 143.399 78.216C143.442 78.088 143.522 77.9973 143.639 77.944C143.757 77.88 143.933 77.848 144.167 77.848C144.391 77.848 144.562 77.88 144.679 77.944C144.797 78.008 144.871 78.104 144.903 78.232C144.946 78.36 144.967 78.5093 144.967 78.68C144.967 78.8507 144.946 79 144.903 79.128C144.871 79.2453 144.797 79.336 144.679 79.4C144.562 79.464 144.386 79.496 144.151 79.496ZM150.281 89.16C149.78 89.16 149.353 89.112 149.001 89.016C148.66 88.92 148.377 88.7707 148.153 88.568C147.929 88.3653 147.769 88.104 147.673 87.784C147.577 87.4533 147.529 87.048 147.529 86.568V79.496C147.529 79.3467 147.545 79.2187 147.577 79.112C147.609 79.0053 147.673 78.9253 147.769 78.872C147.865 78.808 148.014 78.776 148.217 78.776C148.42 78.776 148.574 78.808 148.681 78.872C148.788 78.9253 148.857 79.0053 148.889 79.112C148.921 79.208 148.937 79.3307 148.937 79.48V86.568C148.937 86.8453 148.958 87.0693 149.001 87.24C149.054 87.4 149.129 87.5227 149.225 87.608C149.332 87.6933 149.47 87.7467 149.641 87.768C149.812 87.7893 150.02 87.8 150.265 87.8C150.436 87.8 150.574 87.816 150.681 87.848C150.788 87.88 150.868 87.944 150.921 88.04C150.974 88.136 151.001 88.28 151.001 88.472C151.001 88.6747 150.969 88.8293 150.905 88.936C150.852 89.032 150.766 89.0907 150.649 89.112C150.542 89.144 150.42 89.16 150.281 89.16ZM146.697 81.592L148.233 81.608L150.457 81.576C150.606 81.576 150.734 81.592 150.841 81.624C150.948 81.6453 151.028 81.7093 151.081 81.816C151.145 81.912 151.177 82.0613 151.177 82.264C151.177 82.4667 151.15 82.6213 151.097 82.728C151.044 82.824 150.964 82.888 150.857 82.92C150.75 82.952 150.622 82.968 150.473 82.968L148.281 82.936L146.665 82.952C146.441 82.952 146.286 82.8987 146.201 82.792C146.126 82.6853 146.089 82.5093 146.089 82.264C146.089 82.0293 146.137 81.8587 146.233 81.752C146.329 81.6453 146.484 81.592 146.697 81.592ZM153.433 89.16C153.23 89.16 153.075 89.128 152.969 89.064C152.873 89.0107 152.809 88.9307 152.777 88.824C152.745 88.7173 152.729 88.5893 152.729 88.44V82.12C152.729 81.9707 152.745 81.8427 152.777 81.736C152.809 81.6293 152.873 81.5493 152.969 81.496C153.075 81.4427 153.235 81.416 153.449 81.416C153.651 81.416 153.801 81.448 153.897 81.512C153.993 81.5653 154.057 81.6453 154.089 81.752C154.121 81.8587 154.137 81.992 154.137 82.152V88.456C154.137 88.6053 154.121 88.7333 154.089 88.84C154.057 88.9467 153.987 89.0267 153.881 89.08C153.785 89.1333 153.635 89.16 153.433 89.16ZM153.433 79.496C153.198 79.496 153.022 79.464 152.905 79.4C152.787 79.3253 152.707 79.224 152.665 79.096C152.633 78.968 152.617 78.8187 152.617 78.648C152.617 78.4773 152.638 78.3333 152.681 78.216C152.723 78.088 152.803 77.9973 152.921 77.944C153.038 77.88 153.214 77.848 153.449 77.848C153.673 77.848 153.843 77.88 153.961 77.944C154.078 78.008 154.153 78.104 154.185 78.232C154.227 78.36 154.249 78.5093 154.249 78.68C154.249 78.8507 154.227 79 154.185 79.128C154.153 79.2453 154.078 79.336 153.961 79.4C153.843 79.464 153.667 79.496 153.433 79.496ZM159.875 89.24C159.235 89.24 158.664 89.1333 158.163 88.92C157.661 88.7067 157.235 88.4187 156.883 88.056C156.541 87.6827 156.28 87.256 156.099 86.776C155.917 86.296 155.827 85.7787 155.827 85.224C155.827 84.488 155.997 83.832 156.339 83.256C156.68 82.68 157.149 82.2267 157.747 81.896C158.355 81.5547 159.048 81.384 159.827 81.384C160.36 81.384 160.835 81.4693 161.251 81.64C161.677 81.8 162.04 82.0187 162.339 82.296C162.637 82.5733 162.867 82.8827 163.027 83.224C163.187 83.5653 163.267 83.9067 163.267 84.248C163.267 84.792 163.139 85.176 162.883 85.4C162.627 85.6133 162.312 85.72 161.939 85.72H157.315C157.304 86.1893 157.427 86.5947 157.683 86.936C157.949 87.2667 158.28 87.5227 158.675 87.704C159.08 87.8853 159.485 87.976 159.891 87.976C160.189 87.976 160.445 87.96 160.659 87.928C160.872 87.896 161.059 87.8533 161.219 87.8C161.379 87.7467 161.517 87.6933 161.635 87.64C161.752 87.5867 161.853 87.5333 161.939 87.48C162.035 87.4267 162.125 87.3893 162.211 87.368C162.307 87.3467 162.397 87.3573 162.483 87.4C162.579 87.432 162.653 87.5013 162.707 87.608C162.771 87.6933 162.813 87.7733 162.835 87.848C162.856 87.9227 162.867 88.0027 162.867 88.088C162.867 88.2373 162.739 88.4027 162.483 88.584C162.227 88.7653 161.869 88.92 161.411 89.048C160.963 89.176 160.451 89.24 159.875 89.24ZM157.315 84.776H161.331C161.533 84.776 161.683 84.7493 161.779 84.696C161.885 84.6427 161.939 84.4987 161.939 84.264C161.939 83.9653 161.848 83.6987 161.667 83.464C161.485 83.2187 161.235 83.0213 160.915 82.872C160.605 82.7227 160.248 82.648 159.843 82.648C159.373 82.648 158.941 82.744 158.547 82.936C158.163 83.1173 157.859 83.368 157.635 83.688C157.411 84.008 157.304 84.3707 157.315 84.776ZM167.443 89.24C167.187 89.24 166.921 89.2133 166.643 89.16C166.366 89.1067 166.094 89.032 165.827 88.936C165.571 88.8293 165.342 88.7067 165.139 88.568C164.947 88.4293 164.803 88.2747 164.707 88.104C164.654 87.9973 164.622 87.9013 164.611 87.816C164.601 87.72 164.617 87.6293 164.659 87.544C164.702 87.4587 164.766 87.3733 164.851 87.288C164.958 87.16 165.065 87.1013 165.171 87.112C165.278 87.112 165.411 87.1813 165.571 87.32C165.689 87.3947 165.827 87.48 165.987 87.576C166.147 87.6613 166.313 87.7413 166.483 87.816C166.654 87.88 166.825 87.9387 166.995 87.992C167.177 88.0347 167.353 88.056 167.523 88.056C168.014 88.056 168.409 87.9653 168.707 87.784C169.006 87.592 169.155 87.3413 169.155 87.032C169.155 86.8507 169.118 86.696 169.043 86.568C168.969 86.44 168.867 86.3333 168.739 86.248C168.611 86.152 168.467 86.072 168.307 86.008C168.147 85.944 167.966 85.8853 167.763 85.832C167.571 85.768 167.379 85.7093 167.187 85.656C166.899 85.5813 166.617 85.496 166.339 85.4C166.062 85.304 165.811 85.1813 165.587 85.032C165.363 84.872 165.182 84.6747 165.043 84.44C164.905 84.1947 164.835 83.8853 164.835 83.512C164.835 83.0747 164.947 82.696 165.171 82.376C165.395 82.056 165.71 81.8107 166.115 81.64C166.521 81.4587 166.995 81.368 167.539 81.368C167.774 81.368 167.993 81.384 168.195 81.416C168.398 81.448 168.59 81.5013 168.771 81.576C168.963 81.64 169.145 81.72 169.315 81.816C169.486 81.9013 169.651 82.008 169.811 82.136C170.003 82.264 170.105 82.4027 170.115 82.552C170.126 82.7013 170.067 82.856 169.939 83.016C169.843 83.1547 169.737 83.2453 169.619 83.288C169.502 83.32 169.385 83.288 169.267 83.192C169.097 83.064 168.915 82.952 168.723 82.856C168.531 82.76 168.334 82.68 168.131 82.616C167.929 82.552 167.721 82.52 167.507 82.52C167.241 82.52 167.001 82.5627 166.787 82.648C166.585 82.7227 166.425 82.84 166.307 83C166.201 83.1493 166.147 83.32 166.147 83.512C166.147 83.6827 166.19 83.8213 166.275 83.928C166.371 84.0347 166.489 84.1253 166.627 84.2C166.777 84.2747 166.947 84.344 167.139 84.408C167.342 84.4613 167.55 84.5147 167.763 84.568C168.073 84.6427 168.387 84.7333 168.707 84.84C169.038 84.936 169.331 85.0693 169.587 85.24C169.854 85.4 170.067 85.6187 170.227 85.896C170.398 86.1627 170.483 86.52 170.483 86.968C170.483 87.672 170.206 88.2267 169.651 88.632C169.097 89.0373 168.361 89.24 167.443 89.24Z" fill="#F8F8F8"/>
</g>
<defs>
<filter id="filter0_d_438_16672" x="0" y="0" width="243" height="186" filterUnits="userSpaceOnUse" color-interpolation-filters="sRGB">
<feFlood flood-opacity="0" result="BackgroundImageFix"/>
<feColorMatrix in="SourceAlpha" type="matrix" values="0 0 0 0 0 0 0 0 0 0 0 0 0 0 0 0 0 0 127 0" result="hardAlpha"/>
<feOffset dy="9"/>
<feGaussianBlur stdDeviation="4.5"/>
<feColorMatrix type="matrix" values="0 0 0 0 0 0 0 0 0 0 0 0 0 0 0 0 0 0 0.16 0"/>
<feBlend mode="normal" in2="BackgroundImageFix" result="effect1_dropShadow_438_16672"/>
<feBlend mode="normal" in="SourceGraphic" in2="effect1_dropShadow_438_16672" result="shape"/>
</filter>
<filter id="filter1_d_438_16672" x="10" y="59" width="222" height="67" filterUnits="userSpaceOnUse" color-interpolation-filters="sRGB">
<feFlood flood-opacity="0" result="BackgroundImageFix"/>
<feColorMatrix in="SourceAlpha" type="matrix" values="0 0 0 0 0 0 0 0 0 0 0 0 0 0 0 0 0 0 127 0" result="hardAlpha"/>
<feOffset dy="8"/>
<feGaussianBlur stdDeviation="5"/>
<feComposite in2="hardAlpha" operator="out"/>
<feColorMatrix type="matrix" values="0 0 0 0 0 0 0 0 0 0 0 0 0 0 0 0 0 0 0.5 0"/>
<feBlend mode="normal" in2="BackgroundImageFix" result="effect1_dropShadow_438_16672"/>
<feBlend mode="normal" in="SourceGraphic" in2="effect1_dropShadow_438_16672" result="shape"/>
</filter>
</defs>
</svg>
