<svg width="243" height="186" viewBox="0 0 243 186" fill="none" xmlns="http://www.w3.org/2000/svg">
<g filter="url(#filter0_d_438_16666)">
<path d="M9 20C9 8.95431 17.9543 0 29 0H214C225.046 0 234 8.95431 234 20V148C234 159.046 225.046 168 214 168H29C17.9543 168 9 159.046 9 148V20Z" fill="#3C5EB8"/>
</g>
<path d="M90.9493 44.48C90.3413 44.48 89.7653 44.408 89.2213 44.264C88.6933 44.12 88.2053 43.928 87.7573 43.688C87.3253 43.432 86.9413 43.152 86.6053 42.848C86.2693 42.544 86.0053 42.24 85.8133 41.936C85.6373 41.68 85.5253 41.472 85.4773 41.312C85.4293 41.136 85.4373 40.968 85.5013 40.808C85.5813 40.648 85.7333 40.472 85.9573 40.28C86.2133 40.088 86.4373 40 86.6293 40.016C86.8213 40.016 86.9973 40.088 87.1573 40.232C87.3333 40.376 87.5093 40.568 87.6853 40.808C88.0853 41.352 88.5733 41.752 89.1493 42.008C89.7253 42.248 90.2933 42.368 90.8533 42.368C91.5733 42.368 92.2133 42.272 92.7733 42.08C93.3333 41.888 93.7733 41.6 94.0933 41.216C94.4293 40.816 94.5973 40.304 94.5973 39.68C94.5973 39.168 94.4693 38.736 94.2133 38.384C93.9573 38.032 93.6133 37.736 93.1813 37.496C92.7493 37.24 92.2693 37.024 91.7413 36.848C91.2133 36.656 90.6773 36.472 90.1333 36.296C89.7013 36.152 89.2773 35.992 88.8613 35.816C88.4453 35.624 88.0533 35.416 87.6853 35.192C87.3173 34.952 86.9893 34.672 86.7013 34.352C86.4293 34.032 86.2133 33.656 86.0533 33.224C85.9093 32.792 85.8373 32.288 85.8373 31.712C85.8373 30.832 86.0453 30.056 86.4613 29.384C86.8933 28.712 87.4933 28.192 88.2613 27.824C89.0293 27.44 89.9173 27.248 90.9253 27.248C91.5173 27.248 92.0613 27.304 92.5573 27.416C93.0533 27.528 93.4933 27.68 93.8773 27.872C94.2613 28.048 94.5893 28.24 94.8613 28.448C95.1333 28.64 95.3413 28.824 95.4853 29C95.7733 29.304 95.9333 29.56 95.9653 29.768C95.9973 29.976 95.8773 30.232 95.6053 30.536C95.3493 30.824 95.1013 30.976 94.8613 30.992C94.6213 31.008 94.3573 30.896 94.0693 30.656C93.7653 30.304 93.4453 30.032 93.1093 29.84C92.7893 29.648 92.4453 29.52 92.0773 29.456C91.7253 29.376 91.3333 29.336 90.9013 29.336C90.4853 29.336 90.0933 29.392 89.7253 29.504C89.3733 29.6 89.0613 29.752 88.7893 29.96C88.5333 30.168 88.3333 30.424 88.1893 30.728C88.0453 31.016 87.9733 31.352 87.9733 31.736C87.9733 32.168 88.0853 32.536 88.3093 32.84C88.5493 33.144 88.8613 33.408 89.2453 33.632C89.6293 33.84 90.0613 34.032 90.5413 34.208C91.0213 34.368 91.5253 34.528 92.0533 34.688C92.6293 34.864 93.1973 35.08 93.7573 35.336C94.3173 35.576 94.8213 35.88 95.2693 36.248C95.7173 36.6 96.0773 37.048 96.3493 37.592C96.6213 38.136 96.7573 38.808 96.7573 39.608C96.7573 40.408 96.5973 41.112 96.2773 41.72C95.9733 42.328 95.5493 42.84 95.0053 43.256C94.4613 43.656 93.8373 43.96 93.1333 44.168C92.4453 44.376 91.7173 44.48 90.9493 44.48ZM110.627 27.488C110.835 27.488 111.003 27.512 111.131 27.56C111.275 27.608 111.387 27.704 111.467 27.848C111.547 27.976 111.587 28.192 111.587 28.496C111.587 28.784 111.539 29 111.443 29.144C111.363 29.288 111.251 29.384 111.107 29.432C110.963 29.464 110.787 29.48 110.579 29.48H105.611V43.184C105.611 43.392 105.579 43.576 105.515 43.736C105.467 43.896 105.363 44.016 105.203 44.096C105.059 44.192 104.835 44.24 104.531 44.24C104.211 44.24 103.971 44.192 103.811 44.096C103.667 44.016 103.571 43.896 103.523 43.736C103.491 43.56 103.475 43.368 103.475 43.16V29.48H98.4351C98.2271 29.48 98.0511 29.464 97.9071 29.432C97.7631 29.384 97.6511 29.288 97.5711 29.144C97.4911 29 97.4511 28.784 97.4511 28.496C97.4511 28.192 97.4831 27.976 97.5471 27.848C97.6271 27.704 97.7391 27.608 97.8831 27.56C98.0431 27.512 98.2191 27.488 98.4111 27.488H110.627ZM119.951 44.408C118.815 44.408 117.743 44.192 116.735 43.76C115.743 43.328 114.863 42.728 114.095 41.96C113.343 41.176 112.751 40.28 112.319 39.272C111.887 38.264 111.671 37.176 111.671 36.008C111.671 34.824 111.879 33.712 112.295 32.672C112.711 31.616 113.287 30.696 114.023 29.912C114.775 29.128 115.639 28.512 116.615 28.064C117.591 27.616 118.631 27.392 119.735 27.392C120.887 27.392 121.959 27.608 122.951 28.04C123.959 28.472 124.831 29.08 125.567 29.864C126.319 30.632 126.911 31.536 127.343 32.576C127.775 33.616 127.991 34.728 127.991 35.912C127.991 37.08 127.775 38.176 127.343 39.2C126.927 40.208 126.351 41.112 125.615 41.912C124.879 42.696 124.023 43.312 123.047 43.76C122.087 44.192 121.055 44.408 119.951 44.408ZM119.807 42.224C120.639 42.224 121.415 42.064 122.135 41.744C122.871 41.424 123.511 40.976 124.055 40.4C124.599 39.808 125.023 39.136 125.327 38.384C125.647 37.616 125.807 36.784 125.807 35.888C125.807 35.024 125.647 34.216 125.327 33.464C125.023 32.696 124.591 32.024 124.031 31.448C123.487 30.856 122.855 30.392 122.135 30.056C121.415 29.72 120.647 29.552 119.831 29.552C119.015 29.552 118.247 29.72 117.527 30.056C116.807 30.392 116.167 30.848 115.607 31.424C115.063 32 114.631 32.672 114.311 33.44C114.007 34.208 113.855 35.032 113.855 35.912C113.855 36.776 114.007 37.592 114.311 38.36C114.631 39.128 115.063 39.8 115.607 40.376C116.167 40.952 116.799 41.408 117.503 41.744C118.223 42.064 118.991 42.224 119.807 42.224ZM131.505 44.24C131.201 44.24 130.969 44.192 130.809 44.096C130.649 44.016 130.545 43.896 130.497 43.736C130.465 43.56 130.449 43.36 130.449 43.136V28.544C130.449 28.336 130.473 28.16 130.521 28.016C130.585 27.856 130.689 27.728 130.833 27.632C130.993 27.536 131.225 27.488 131.529 27.488H136.833C137.617 27.488 138.329 27.608 138.969 27.848C139.625 28.072 140.193 28.408 140.673 28.856C141.153 29.304 141.521 29.872 141.777 30.56C142.049 31.232 142.185 32.016 142.185 32.912C142.185 33.472 142.097 34.056 141.921 34.664C141.745 35.256 141.473 35.816 141.105 36.344C140.753 36.872 140.297 37.312 139.737 37.664C139.177 38.016 138.497 38.216 137.697 38.264H132.609V43.16C132.609 43.384 132.577 43.576 132.513 43.736C132.465 43.896 132.361 44.016 132.201 44.096C132.057 44.192 131.825 44.24 131.505 44.24ZM141.801 43.976C141.465 44.2 141.177 44.272 140.937 44.192C140.713 44.112 140.497 43.92 140.289 43.616L136.449 37.472L138.825 37.112L142.137 42.392C142.297 42.648 142.393 42.864 142.425 43.04C142.473 43.216 142.441 43.376 142.329 43.52C142.233 43.664 142.057 43.816 141.801 43.976ZM132.609 36.152H137.361C137.729 36.152 138.073 36.088 138.393 35.96C138.713 35.816 138.993 35.608 139.233 35.336C139.473 35.064 139.665 34.728 139.809 34.328C139.953 33.928 140.025 33.448 140.025 32.888C140.025 32.2 139.897 31.616 139.641 31.136C139.401 30.656 139.041 30.296 138.561 30.056C138.081 29.8 137.489 29.672 136.785 29.672H132.609V36.152ZM146.506 44.24C146.186 44.24 145.946 44.192 145.786 44.096C145.642 44.016 145.546 43.896 145.498 43.736C145.45 43.56 145.426 43.36 145.426 43.136V28.568C145.426 28.152 145.506 27.872 145.666 27.728C145.842 27.568 146.146 27.488 146.578 27.488H156.226C156.45 27.488 156.642 27.512 156.802 27.56C156.962 27.608 157.082 27.712 157.162 27.872C157.242 28.032 157.282 28.272 157.282 28.592C157.282 28.912 157.234 29.152 157.138 29.312C157.058 29.456 156.938 29.552 156.778 29.6C156.618 29.648 156.426 29.672 156.202 29.672H147.586V34.64H153.586C153.81 34.64 153.994 34.664 154.138 34.712C154.298 34.76 154.418 34.856 154.498 35C154.578 35.144 154.618 35.368 154.618 35.672C154.618 35.96 154.578 36.176 154.498 36.32C154.418 36.464 154.298 36.56 154.138 36.608C153.978 36.64 153.778 36.656 153.538 36.656H147.586V42.08H156.226C156.45 42.08 156.642 42.104 156.802 42.152C156.962 42.2 157.082 42.304 157.162 42.464C157.242 42.608 157.282 42.84 157.282 43.16C157.282 43.48 157.234 43.72 157.138 43.88C157.058 44.024 156.938 44.12 156.778 44.168C156.618 44.216 156.426 44.24 156.202 44.24H146.506Z" fill="white"/>
<g filter="url(#filter1_d_438_16666)">
<rect x="20" y="61" width="202" height="47" rx="23.5" fill="#123EB4"/>
<path d="M71.808 89.16C71.6053 89.16 71.4507 89.128 71.344 89.064C71.248 89.0107 71.184 88.9307 71.152 88.824C71.12 88.7067 71.104 88.5733 71.104 88.424V78.712C71.104 78.5733 71.12 78.4507 71.152 78.344C71.1947 78.2373 71.2693 78.152 71.376 78.088C71.4827 78.024 71.632 77.992 71.824 77.992H75.328C75.84 77.992 76.3093 78.072 76.736 78.232C77.1733 78.3813 77.552 78.616 77.872 78.936C78.2027 79.2453 78.4587 79.624 78.64 80.072C78.8213 80.52 78.912 81.0373 78.912 81.624C78.912 82.2 78.8213 82.712 78.64 83.16C78.4587 83.608 78.2027 83.9867 77.872 84.296C77.5413 84.5947 77.1573 84.824 76.72 84.984C76.2933 85.144 75.824 85.224 75.312 85.224H72.56V88.44C72.56 88.5893 72.5387 88.7173 72.496 88.824C72.464 88.9307 72.3947 89.0107 72.288 89.064C72.192 89.128 72.032 89.16 71.808 89.16ZM72.56 83.768H75.328C75.7547 83.768 76.128 83.688 76.448 83.528C76.768 83.3573 77.0187 83.112 77.2 82.792C77.3813 82.4613 77.472 82.0613 77.472 81.592C77.472 81.144 77.3867 80.76 77.216 80.44C77.0453 80.12 76.7947 79.8747 76.464 79.704C76.144 79.5333 75.76 79.448 75.312 79.448H72.56V83.768ZM83.6894 89.176C83.22 89.176 82.7827 89.0907 82.3774 88.92C81.9827 88.7493 81.636 88.5093 81.3374 88.2C81.0387 87.8907 80.804 87.5173 80.6334 87.08C80.4734 86.6427 80.3934 86.1467 80.3934 85.592V82.12C80.3934 81.9707 80.4094 81.8427 80.4414 81.736C80.4734 81.6293 80.5374 81.5493 80.6334 81.496C80.74 81.432 80.8947 81.4 81.0974 81.4C81.3 81.4 81.4494 81.432 81.5454 81.496C81.652 81.56 81.7214 81.6453 81.7534 81.752C81.7854 81.8587 81.8014 81.9867 81.8014 82.136V85.608C81.8014 86.0453 81.876 86.4347 82.0254 86.776C82.1747 87.1067 82.3987 87.3627 82.6974 87.544C83.0067 87.7253 83.38 87.816 83.8174 87.816C84.2654 87.816 84.6494 87.7253 84.9694 87.544C85.3 87.3627 85.5507 87.1067 85.7214 86.776C85.9027 86.4347 85.9934 86.0453 85.9934 85.608V82.12C85.9934 81.9707 86.0094 81.8427 86.0414 81.736C86.0734 81.6293 86.1374 81.5493 86.2334 81.496C86.34 81.432 86.4947 81.4 86.6974 81.4C86.9 81.4 87.0494 81.432 87.1454 81.496C87.252 81.56 87.316 81.6453 87.3374 81.752C87.3694 81.8587 87.3854 81.9867 87.3854 82.136V88.488C87.3854 88.616 87.3694 88.7333 87.3374 88.84C87.316 88.936 87.252 89.0107 87.1454 89.064C87.0494 89.1173 86.9 89.144 86.6974 89.144C86.548 89.144 86.4254 89.128 86.3294 89.096C86.244 89.064 86.18 89.0213 86.1374 88.968C86.0947 88.9147 86.0627 88.856 86.0414 88.792C86.0307 88.7173 86.0254 88.6427 86.0254 88.568L86.0894 87.88C85.9827 88.008 85.8547 88.1467 85.7054 88.296C85.556 88.4453 85.38 88.5893 85.1774 88.728C84.9854 88.856 84.7667 88.9627 84.5214 89.048C84.276 89.1333 83.9987 89.176 83.6894 89.176ZM90.0089 89.16C89.8062 89.16 89.6515 89.128 89.5449 89.064C89.4489 89.0107 89.3849 88.9307 89.3529 88.824C89.3315 88.7067 89.3209 88.5733 89.3209 88.424V82.12C89.3209 81.96 89.3369 81.8267 89.3689 81.72C89.4009 81.6133 89.4649 81.5387 89.5609 81.496C89.6569 81.4427 89.8115 81.416 90.0249 81.416C90.2169 81.416 90.3609 81.4427 90.4569 81.496C90.5635 81.5387 90.6329 81.608 90.6649 81.704C90.7075 81.7893 90.7289 81.8907 90.7289 82.008L90.6649 82.488C90.7395 82.3493 90.8249 82.2107 90.9209 82.072C91.0275 81.9333 91.1555 81.8107 91.3049 81.704C91.4649 81.5867 91.6515 81.4907 91.8649 81.416C92.0889 81.3413 92.3609 81.304 92.6809 81.304C92.8409 81.304 92.9902 81.32 93.1289 81.352C93.2782 81.3733 93.4169 81.4107 93.5449 81.464C93.6835 81.5173 93.8009 81.5813 93.8969 81.656C93.9929 81.72 94.0675 81.7947 94.1209 81.88C94.1849 81.9547 94.2169 82.0453 94.2169 82.152C94.2169 82.3867 94.1422 82.5893 93.9929 82.76C93.8435 82.92 93.6889 83 93.5289 83C93.3902 83 93.2889 82.984 93.2249 82.952C93.1609 82.9093 93.0969 82.8667 93.0329 82.824C92.9795 82.7813 92.8995 82.744 92.7929 82.712C92.6862 82.6693 92.5155 82.648 92.2809 82.648C92.1209 82.648 91.9502 82.68 91.7689 82.744C91.5982 82.808 91.4329 82.904 91.2729 83.032C91.1129 83.1493 90.9795 83.304 90.8729 83.496C90.7769 83.688 90.7289 83.912 90.7289 84.168V88.456C90.7289 88.6053 90.7129 88.7333 90.6809 88.84C90.6489 88.9467 90.5795 89.0267 90.4729 89.08C90.3769 89.1333 90.2222 89.16 90.0089 89.16ZM98.5623 89.192C98.0076 89.192 97.4849 89.1013 96.9943 88.92C96.5143 88.7387 96.0876 88.4773 95.7143 88.136C95.3516 87.7947 95.0636 87.3893 94.8503 86.92C94.6476 86.44 94.5463 85.896 94.5463 85.288C94.5463 84.68 94.6476 84.1413 94.8503 83.672C95.0636 83.192 95.3516 82.7813 95.7143 82.44C96.0769 82.0987 96.4983 81.8373 96.9783 81.656C97.4689 81.4747 97.9863 81.384 98.5303 81.384C98.8929 81.384 99.2503 81.4427 99.6023 81.56C99.9543 81.6667 100.264 81.8107 100.53 81.992C100.808 82.1627 101.005 82.344 101.122 82.536C101.229 82.6747 101.304 82.792 101.346 82.888C101.4 82.9733 101.405 83.0747 101.362 83.192C101.32 83.2773 101.261 83.3573 101.186 83.432C101.112 83.496 101.037 83.5493 100.962 83.592C100.77 83.7413 100.578 83.7627 100.386 83.656C100.269 83.5387 100.136 83.432 99.9863 83.336C99.8476 83.2293 99.6983 83.1333 99.5383 83.048C99.3783 82.9627 99.2129 82.8987 99.0423 82.856C98.8823 82.8027 98.7116 82.776 98.5303 82.776C98.0289 82.776 97.5863 82.8827 97.2023 83.096C96.8183 83.2987 96.5196 83.592 96.3063 83.976C96.1036 84.3493 96.0023 84.7867 96.0023 85.288C96.0023 85.7893 96.1036 86.2267 96.3063 86.6C96.5196 86.9733 96.8129 87.2667 97.1863 87.48C97.5703 87.6933 98.0076 87.8 98.4983 87.8C98.7223 87.8 98.9356 87.7733 99.1383 87.72C99.3516 87.656 99.5489 87.576 99.7303 87.48C99.9116 87.3733 100.061 87.2613 100.178 87.144C100.285 87.0693 100.376 87.0053 100.45 86.952C100.525 86.8987 100.616 86.872 100.722 86.872C100.808 86.872 100.898 86.9093 100.994 86.984C101.09 87.048 101.192 87.1493 101.298 87.288C101.384 87.384 101.432 87.4853 101.442 87.592C101.464 87.6987 101.448 87.8 101.394 87.896C101.341 87.992 101.256 88.088 101.138 88.184C100.968 88.3547 100.738 88.52 100.45 88.68C100.173 88.8293 99.8689 88.952 99.5383 89.048C99.2076 89.144 98.8823 89.192 98.5623 89.192ZM103.538 89.16C103.335 89.16 103.18 89.128 103.074 89.064C102.967 89.0107 102.898 88.9307 102.866 88.824C102.844 88.7067 102.834 88.5733 102.834 88.424V78.568C102.834 78.4187 102.85 78.2907 102.882 78.184C102.914 78.0773 102.983 77.9973 103.09 77.944C103.196 77.88 103.351 77.848 103.554 77.848C103.767 77.848 103.922 77.88 104.018 77.944C104.124 77.9973 104.188 78.0773 104.21 78.184C104.242 78.2907 104.258 78.424 104.258 78.584V82.536C104.514 82.2373 104.823 81.9707 105.186 81.736C105.559 81.5013 106.012 81.384 106.546 81.384C107.175 81.384 107.735 81.5333 108.226 81.832C108.727 82.12 109.122 82.5307 109.41 83.064C109.708 83.5973 109.858 84.232 109.858 84.968V88.44C109.858 88.5893 109.842 88.7173 109.81 88.824C109.778 88.9307 109.714 89.0107 109.618 89.064C109.522 89.128 109.367 89.16 109.154 89.16C108.951 89.16 108.796 89.128 108.69 89.064C108.583 89.0107 108.514 88.9307 108.482 88.824C108.45 88.7067 108.434 88.5733 108.434 88.424V84.952C108.434 84.504 108.359 84.1147 108.21 83.784C108.06 83.4533 107.836 83.1973 107.538 83.016C107.25 82.8347 106.882 82.744 106.434 82.744C105.826 82.744 105.324 82.92 104.93 83.272C104.546 83.6133 104.322 84.072 104.258 84.648V88.44C104.258 88.5893 104.242 88.7173 104.21 88.824C104.178 88.9307 104.108 89.0107 104.002 89.064C103.906 89.128 103.751 89.16 103.538 89.16ZM117.866 89.144C117.631 89.144 117.46 89.096 117.354 89C117.258 88.904 117.199 88.7547 117.178 88.552L117.242 87.752C117.135 87.9227 116.97 88.12 116.746 88.344C116.522 88.5573 116.228 88.7493 115.866 88.92C115.503 89.08 115.06 89.16 114.538 89.16C114.026 89.16 113.546 89.0587 113.098 88.856C112.66 88.6533 112.271 88.3707 111.93 88.008C111.599 87.6453 111.338 87.2293 111.146 86.76C110.964 86.2907 110.874 85.7893 110.874 85.256C110.874 84.7333 110.964 84.2427 111.146 83.784C111.338 83.3147 111.604 82.904 111.946 82.552C112.287 82.2 112.676 81.9227 113.114 81.72C113.562 81.5173 114.036 81.416 114.538 81.416C115.007 81.416 115.407 81.48 115.738 81.608C116.068 81.7253 116.351 81.8853 116.586 82.088C116.831 82.28 117.044 82.4987 117.226 82.744L117.194 82.072C117.183 81.8373 117.231 81.672 117.338 81.576C117.455 81.4693 117.636 81.416 117.882 81.416C118.084 81.416 118.228 81.448 118.314 81.512C118.41 81.576 118.474 81.6667 118.506 81.784C118.538 81.9013 118.554 82.0453 118.554 82.216V88.392C118.554 88.5413 118.538 88.6747 118.506 88.792C118.474 88.9093 118.41 88.9947 118.314 89.048C118.218 89.112 118.068 89.144 117.866 89.144ZM114.778 87.816C115.204 87.816 115.594 87.704 115.946 87.48C116.308 87.256 116.591 86.9573 116.794 86.584C117.007 86.2 117.114 85.7627 117.114 85.272C117.114 84.7707 117.002 84.3333 116.778 83.96C116.564 83.576 116.276 83.2773 115.914 83.064C115.562 82.84 115.172 82.728 114.746 82.728C114.244 82.728 113.807 82.8453 113.434 83.08C113.071 83.304 112.783 83.608 112.57 83.992C112.356 84.376 112.25 84.8133 112.25 85.304C112.25 85.784 112.356 86.216 112.57 86.6C112.783 86.9733 113.076 87.272 113.45 87.496C113.834 87.7093 114.276 87.816 114.778 87.816ZM123.037 89.24C122.781 89.24 122.514 89.2133 122.237 89.16C121.96 89.1067 121.688 89.032 121.421 88.936C121.165 88.8293 120.936 88.7067 120.733 88.568C120.541 88.4293 120.397 88.2747 120.301 88.104C120.248 87.9973 120.216 87.9013 120.205 87.816C120.194 87.72 120.21 87.6293 120.253 87.544C120.296 87.4587 120.36 87.3733 120.445 87.288C120.552 87.16 120.658 87.1013 120.765 87.112C120.872 87.112 121.005 87.1813 121.165 87.32C121.282 87.3947 121.421 87.48 121.581 87.576C121.741 87.6613 121.906 87.7413 122.077 87.816C122.248 87.88 122.418 87.9387 122.589 87.992C122.77 88.0347 122.946 88.056 123.117 88.056C123.608 88.056 124.002 87.9653 124.301 87.784C124.6 87.592 124.749 87.3413 124.749 87.032C124.749 86.8507 124.712 86.696 124.637 86.568C124.562 86.44 124.461 86.3333 124.333 86.248C124.205 86.152 124.061 86.072 123.901 86.008C123.741 85.944 123.56 85.8853 123.357 85.832C123.165 85.768 122.973 85.7093 122.781 85.656C122.493 85.5813 122.21 85.496 121.933 85.4C121.656 85.304 121.405 85.1813 121.181 85.032C120.957 84.872 120.776 84.6747 120.637 84.44C120.498 84.1947 120.429 83.8853 120.429 83.512C120.429 83.0747 120.541 82.696 120.765 82.376C120.989 82.056 121.304 81.8107 121.709 81.64C122.114 81.4587 122.589 81.368 123.133 81.368C123.368 81.368 123.586 81.384 123.789 81.416C123.992 81.448 124.184 81.5013 124.365 81.576C124.557 81.64 124.738 81.72 124.909 81.816C125.08 81.9013 125.245 82.008 125.405 82.136C125.597 82.264 125.698 82.4027 125.709 82.552C125.72 82.7013 125.661 82.856 125.533 83.016C125.437 83.1547 125.33 83.2453 125.213 83.288C125.096 83.32 124.978 83.288 124.861 83.192C124.69 83.064 124.509 82.952 124.317 82.856C124.125 82.76 123.928 82.68 123.725 82.616C123.522 82.552 123.314 82.52 123.101 82.52C122.834 82.52 122.594 82.5627 122.381 82.648C122.178 82.7227 122.018 82.84 121.901 83C121.794 83.1493 121.741 83.32 121.741 83.512C121.741 83.6827 121.784 83.8213 121.869 83.928C121.965 84.0347 122.082 84.1253 122.221 84.2C122.37 84.2747 122.541 84.344 122.733 84.408C122.936 84.4613 123.144 84.5147 123.357 84.568C123.666 84.6427 123.981 84.7333 124.301 84.84C124.632 84.936 124.925 85.0693 125.181 85.24C125.448 85.4 125.661 85.6187 125.821 85.896C125.992 86.1627 126.077 86.52 126.077 86.968C126.077 87.672 125.8 88.2267 125.245 88.632C124.69 89.0373 123.954 89.24 123.037 89.24ZM131.453 89.24C130.813 89.24 130.242 89.1333 129.741 88.92C129.24 88.7067 128.813 88.4187 128.461 88.056C128.12 87.6827 127.858 87.256 127.677 86.776C127.496 86.296 127.405 85.7787 127.405 85.224C127.405 84.488 127.576 83.832 127.917 83.256C128.258 82.68 128.728 82.2267 129.325 81.896C129.933 81.5547 130.626 81.384 131.405 81.384C131.938 81.384 132.413 81.4693 132.829 81.64C133.256 81.8 133.618 82.0187 133.917 82.296C134.216 82.5733 134.445 82.8827 134.605 83.224C134.765 83.5653 134.845 83.9067 134.845 84.248C134.845 84.792 134.717 85.176 134.461 85.4C134.205 85.6133 133.89 85.72 133.517 85.72H128.893C128.882 86.1893 129.005 86.5947 129.261 86.936C129.528 87.2667 129.858 87.5227 130.253 87.704C130.658 87.8853 131.064 87.976 131.469 87.976C131.768 87.976 132.024 87.96 132.237 87.928C132.45 87.896 132.637 87.8533 132.797 87.8C132.957 87.7467 133.096 87.6933 133.213 87.64C133.33 87.5867 133.432 87.5333 133.517 87.48C133.613 87.4267 133.704 87.3893 133.789 87.368C133.885 87.3467 133.976 87.3573 134.061 87.4C134.157 87.432 134.232 87.5013 134.285 87.608C134.349 87.6933 134.392 87.7733 134.413 87.848C134.434 87.9227 134.445 88.0027 134.445 88.088C134.445 88.2373 134.317 88.4027 134.061 88.584C133.805 88.7653 133.448 88.92 132.989 89.048C132.541 89.176 132.029 89.24 131.453 89.24ZM128.893 84.776H132.909C133.112 84.776 133.261 84.7493 133.357 84.696C133.464 84.6427 133.517 84.4987 133.517 84.264C133.517 83.9653 133.426 83.6987 133.245 83.464C133.064 83.2187 132.813 83.0213 132.493 82.872C132.184 82.7227 131.826 82.648 131.421 82.648C130.952 82.648 130.52 82.744 130.125 82.936C129.741 83.1173 129.437 83.368 129.213 83.688C128.989 84.008 128.882 84.3707 128.893 84.776ZM141.084 89.16C140.892 89.16 140.743 89.1227 140.636 89.048C140.54 88.984 140.476 88.888 140.444 88.76C140.412 88.6213 140.396 88.472 140.396 88.312V78.808C140.396 78.648 140.412 78.5093 140.444 78.392C140.487 78.264 140.556 78.168 140.652 78.104C140.759 78.0293 140.908 77.992 141.1 77.992H145.564C146.161 77.992 146.684 78.1253 147.132 78.392C147.591 78.6587 147.948 79.0213 148.204 79.48C148.46 79.9387 148.583 80.44 148.572 80.984C148.583 81.2613 148.551 81.5333 148.476 81.8C148.401 82.0667 148.289 82.3173 148.14 82.552C148.001 82.776 147.825 82.9627 147.612 83.112C147.9 83.2933 148.145 83.528 148.348 83.816C148.551 84.104 148.705 84.424 148.812 84.776C148.919 85.128 148.972 85.496 148.972 85.88C148.961 86.3387 148.876 86.7707 148.716 87.176C148.556 87.5707 148.327 87.9173 148.028 88.216C147.729 88.5147 147.383 88.7493 146.988 88.92C146.593 89.08 146.172 89.16 145.724 89.16H141.084ZM141.836 87.784H145.564C145.98 87.784 146.337 87.704 146.636 87.544C146.935 87.384 147.164 87.1493 147.324 86.84C147.484 86.5307 147.564 86.152 147.564 85.704C147.564 85.32 147.511 85.0107 147.404 84.776C147.297 84.5413 147.153 84.3653 146.972 84.248C146.791 84.12 146.593 84.0293 146.38 83.976C146.177 83.9227 145.975 83.896 145.772 83.896C145.58 83.8853 145.404 83.88 145.244 83.88H144.268C144.055 83.88 143.9 83.8267 143.804 83.72C143.708 83.6133 143.66 83.4427 143.66 83.208C143.66 82.984 143.708 82.824 143.804 82.728C143.911 82.632 144.071 82.584 144.284 82.584H145.26C145.431 82.584 145.623 82.5787 145.836 82.568C146.049 82.5573 146.257 82.5147 146.46 82.44C146.673 82.3653 146.844 82.2267 146.972 82.024C147.111 81.8107 147.18 81.512 147.18 81.128C147.18 80.5307 147.02 80.0933 146.7 79.816C146.38 79.528 145.852 79.384 145.116 79.384H141.836V87.784ZM154.106 89.256C153.583 89.256 153.082 89.1547 152.602 88.952C152.132 88.7493 151.711 88.472 151.338 88.12C150.964 87.7573 150.671 87.336 150.458 86.856C150.244 86.376 150.138 85.8533 150.138 85.288C150.138 84.7333 150.239 84.2213 150.442 83.752C150.644 83.272 150.927 82.8507 151.29 82.488C151.652 82.1253 152.068 81.8427 152.538 81.64C153.018 81.4267 153.53 81.32 154.074 81.32C154.81 81.32 155.471 81.496 156.058 81.848C156.655 82.1893 157.13 82.6587 157.482 83.256C157.834 83.8533 158.01 84.5253 158.01 85.272C158.01 85.8587 157.903 86.3973 157.69 86.888C157.476 87.368 157.188 87.784 156.826 88.136C156.463 88.488 156.047 88.7653 155.578 88.968C155.108 89.16 154.618 89.256 154.106 89.256ZM154.074 87.864C154.522 87.864 154.938 87.752 155.322 87.528C155.706 87.304 156.015 86.9947 156.25 86.6C156.484 86.2053 156.602 85.7573 156.602 85.256C156.602 84.7547 156.49 84.312 156.266 83.928C156.052 83.544 155.754 83.2453 155.37 83.032C154.986 82.8187 154.548 82.712 154.058 82.712C153.588 82.712 153.162 82.824 152.778 83.048C152.404 83.272 152.1 83.576 151.866 83.96C151.642 84.344 151.53 84.7813 151.53 85.272C151.53 85.784 151.647 86.2373 151.882 86.632C152.116 87.016 152.426 87.32 152.81 87.544C153.204 87.7573 153.626 87.864 154.074 87.864ZM163.059 89.256C162.536 89.256 162.035 89.1547 161.555 88.952C161.086 88.7493 160.664 88.472 160.291 88.12C159.918 87.7573 159.624 87.336 159.411 86.856C159.198 86.376 159.091 85.8533 159.091 85.288C159.091 84.7333 159.192 84.2213 159.395 83.752C159.598 83.272 159.88 82.8507 160.243 82.488C160.606 82.1253 161.022 81.8427 161.491 81.64C161.971 81.4267 162.483 81.32 163.027 81.32C163.763 81.32 164.424 81.496 165.011 81.848C165.608 82.1893 166.083 82.6587 166.435 83.256C166.787 83.8533 166.963 84.5253 166.963 85.272C166.963 85.8587 166.856 86.3973 166.643 86.888C166.43 87.368 166.142 87.784 165.779 88.136C165.416 88.488 165 88.7653 164.531 88.968C164.062 89.16 163.571 89.256 163.059 89.256ZM163.027 87.864C163.475 87.864 163.891 87.752 164.275 87.528C164.659 87.304 164.968 86.9947 165.203 86.6C165.438 86.2053 165.555 85.7573 165.555 85.256C165.555 84.7547 165.443 84.312 165.219 83.928C165.006 83.544 164.707 83.2453 164.323 83.032C163.939 82.8187 163.502 82.712 163.011 82.712C162.542 82.712 162.115 82.824 161.731 83.048C161.358 83.272 161.054 83.576 160.819 83.96C160.595 84.344 160.483 84.7813 160.483 85.272C160.483 85.784 160.6 86.2373 160.835 86.632C161.07 87.016 161.379 87.32 161.763 87.544C162.158 87.7573 162.579 87.864 163.027 87.864ZM174.46 87.912C174.663 88.072 174.769 88.2267 174.78 88.376C174.801 88.5253 174.727 88.7013 174.556 88.904C174.428 89.0533 174.311 89.1493 174.204 89.192C174.108 89.2453 174.007 89.2507 173.9 89.208C173.793 89.176 173.671 89.1013 173.532 88.984L169.916 86.04V88.44C169.916 88.5893 169.895 88.7173 169.852 88.824C169.82 88.9307 169.756 89.0107 169.66 89.064C169.564 89.128 169.409 89.16 169.196 89.16C169.004 89.16 168.855 89.128 168.748 89.064C168.641 89.0107 168.572 88.9307 168.54 88.824C168.519 88.7067 168.508 88.5733 168.508 88.424V78.552C168.508 78.4027 168.524 78.2747 168.556 78.168C168.588 78.0613 168.657 77.9813 168.764 77.928C168.871 77.864 169.02 77.832 169.212 77.832C169.425 77.832 169.58 77.864 169.676 77.928C169.772 77.9813 169.836 78.0667 169.868 78.184C169.9 78.2907 169.916 78.4187 169.916 78.568V84.232L172.556 81.704C172.673 81.5867 172.785 81.5067 172.892 81.464C173.009 81.4107 173.121 81.4 173.228 81.432C173.345 81.464 173.463 81.5493 173.58 81.688C173.772 81.9013 173.863 82.0827 173.852 82.232C173.852 82.3707 173.756 82.5307 173.564 82.712L170.972 85.16L174.46 87.912ZM178.912 89.24C178.656 89.24 178.389 89.2133 178.112 89.16C177.835 89.1067 177.563 89.032 177.296 88.936C177.04 88.8293 176.811 88.7067 176.608 88.568C176.416 88.4293 176.272 88.2747 176.176 88.104C176.123 87.9973 176.091 87.9013 176.08 87.816C176.069 87.72 176.085 87.6293 176.128 87.544C176.171 87.4587 176.235 87.3733 176.32 87.288C176.427 87.16 176.533 87.1013 176.64 87.112C176.747 87.112 176.88 87.1813 177.04 87.32C177.157 87.3947 177.296 87.48 177.456 87.576C177.616 87.6613 177.781 87.7413 177.952 87.816C178.123 87.88 178.293 87.9387 178.464 87.992C178.645 88.0347 178.821 88.056 178.992 88.056C179.483 88.056 179.877 87.9653 180.176 87.784C180.475 87.592 180.624 87.3413 180.624 87.032C180.624 86.8507 180.587 86.696 180.512 86.568C180.437 86.44 180.336 86.3333 180.208 86.248C180.08 86.152 179.936 86.072 179.776 86.008C179.616 85.944 179.435 85.8853 179.232 85.832C179.04 85.768 178.848 85.7093 178.656 85.656C178.368 85.5813 178.085 85.496 177.808 85.4C177.531 85.304 177.28 85.1813 177.056 85.032C176.832 84.872 176.651 84.6747 176.512 84.44C176.373 84.1947 176.304 83.8853 176.304 83.512C176.304 83.0747 176.416 82.696 176.64 82.376C176.864 82.056 177.179 81.8107 177.584 81.64C177.989 81.4587 178.464 81.368 179.008 81.368C179.243 81.368 179.461 81.384 179.664 81.416C179.867 81.448 180.059 81.5013 180.24 81.576C180.432 81.64 180.613 81.72 180.784 81.816C180.955 81.9013 181.12 82.008 181.28 82.136C181.472 82.264 181.573 82.4027 181.584 82.552C181.595 82.7013 181.536 82.856 181.408 83.016C181.312 83.1547 181.205 83.2453 181.088 83.288C180.971 83.32 180.853 83.288 180.736 83.192C180.565 83.064 180.384 82.952 180.192 82.856C180 82.76 179.803 82.68 179.6 82.616C179.397 82.552 179.189 82.52 178.976 82.52C178.709 82.52 178.469 82.5627 178.256 82.648C178.053 82.7227 177.893 82.84 177.776 83C177.669 83.1493 177.616 83.32 177.616 83.512C177.616 83.6827 177.659 83.8213 177.744 83.928C177.84 84.0347 177.957 84.1253 178.096 84.2C178.245 84.2747 178.416 84.344 178.608 84.408C178.811 84.4613 179.019 84.5147 179.232 84.568C179.541 84.6427 179.856 84.7333 180.176 84.84C180.507 84.936 180.8 85.0693 181.056 85.24C181.323 85.4 181.536 85.6187 181.696 85.896C181.867 86.1627 181.952 86.52 181.952 86.968C181.952 87.672 181.675 88.2267 181.12 88.632C180.565 89.0373 179.829 89.24 178.912 89.24Z" fill="#F8F8F8"/>
</g>
<defs>
<filter id="filter0_d_438_16666" x="0" y="0" width="243" height="186" filterUnits="userSpaceOnUse" color-interpolation-filters="sRGB">
<feFlood flood-opacity="0" result="BackgroundImageFix"/>
<feColorMatrix in="SourceAlpha" type="matrix" values="0 0 0 0 0 0 0 0 0 0 0 0 0 0 0 0 0 0 127 0" result="hardAlpha"/>
<feOffset dy="9"/>
<feGaussianBlur stdDeviation="4.5"/>
<feColorMatrix type="matrix" values="0 0 0 0 0 0 0 0 0 0 0 0 0 0 0 0 0 0 0.16 0"/>
<feBlend mode="normal" in2="BackgroundImageFix" result="effect1_dropShadow_438_16666"/>
<feBlend mode="normal" in="SourceGraphic" in2="effect1_dropShadow_438_16666" result="shape"/>
</filter>
<filter id="filter1_d_438_16666" x="10" y="59" width="222" height="67" filterUnits="userSpaceOnUse" color-interpolation-filters="sRGB">
<feFlood flood-opacity="0" result="BackgroundImageFix"/>
<feColorMatrix in="SourceAlpha" type="matrix" values="0 0 0 0 0 0 0 0 0 0 0 0 0 0 0 0 0 0 127 0" result="hardAlpha"/>
<feOffset dy="8"/>
<feGaussianBlur stdDeviation="5"/>
<feComposite in2="hardAlpha" operator="out"/>
<feColorMatrix type="matrix" values="0 0 0 0 0 0 0 0 0 0 0 0 0 0 0 0 0 0 0.5 0"/>
<feBlend mode="normal" in2="BackgroundImageFix" result="effect1_dropShadow_438_16666"/>
<feBlend mode="normal" in="SourceGraphic" in2="effect1_dropShadow_438_16666" result="shape"/>
</filter>
</defs>
</svg>
