<svg width="243" height="186" viewBox="0 0 243 186" fill="none" xmlns="http://www.w3.org/2000/svg">
<g filter="url(#filter0_d_438_16660)">
<path d="M9 20C9 8.95431 17.9543 0 29 0H214C225.046 0 234 8.95431 234 20V148C234 159.046 225.046 168 214 168H29C17.9543 168 9 159.046 9 148V20Z" fill="#CB4242"/>
</g>
<path d="M91.5557 44.24C91.2677 44.24 91.0437 44.184 90.8837 44.072C90.7397 43.976 90.6437 43.832 90.5957 43.64C90.5477 43.432 90.5237 43.208 90.5237 42.968V28.712C90.5237 28.472 90.5477 28.264 90.5957 28.088C90.6597 27.896 90.7637 27.752 90.9077 27.656C91.0677 27.544 91.2917 27.488 91.5797 27.488H98.2757C99.1717 27.488 99.9557 27.688 100.628 28.088C101.316 28.488 101.852 29.032 102.236 29.72C102.62 30.408 102.804 31.16 102.788 31.976C102.804 32.392 102.756 32.8 102.644 33.2C102.532 33.6 102.364 33.976 102.14 34.328C101.932 34.664 101.668 34.944 101.348 35.168C101.78 35.44 102.148 35.792 102.452 36.224C102.756 36.656 102.988 37.136 103.148 37.664C103.308 38.192 103.388 38.744 103.388 39.32C103.372 40.008 103.244 40.656 103.004 41.264C102.764 41.856 102.42 42.376 101.972 42.824C101.524 43.272 101.004 43.624 100.412 43.88C99.8197 44.12 99.1877 44.24 98.5157 44.24H91.5557ZM92.6837 42.176H98.2757C98.8997 42.176 99.4357 42.056 99.8837 41.816C100.332 41.576 100.676 41.224 100.916 40.76C101.156 40.296 101.276 39.728 101.276 39.056C101.276 38.48 101.196 38.016 101.036 37.664C100.876 37.312 100.66 37.048 100.388 36.872C100.116 36.68 99.8197 36.544 99.4997 36.464C99.1957 36.384 98.8917 36.344 98.5877 36.344C98.2997 36.328 98.0357 36.32 97.7957 36.32H96.3317C96.0117 36.32 95.7797 36.24 95.6357 36.08C95.4917 35.92 95.4197 35.664 95.4197 35.312C95.4197 34.976 95.4917 34.736 95.6357 34.592C95.7957 34.448 96.0357 34.376 96.3557 34.376H97.8197C98.0757 34.376 98.3637 34.368 98.6837 34.352C99.0037 34.336 99.3157 34.272 99.6197 34.16C99.9397 34.048 100.196 33.84 100.388 33.536C100.596 33.216 100.7 32.768 100.7 32.192C100.7 31.296 100.46 30.64 99.9797 30.224C99.4997 29.792 98.7077 29.576 97.6037 29.576H92.6837V42.176ZM113.388 44.408C112.252 44.408 111.18 44.192 110.172 43.76C109.18 43.328 108.3 42.728 107.532 41.96C106.78 41.176 106.188 40.28 105.756 39.272C105.324 38.264 105.108 37.176 105.108 36.008C105.108 34.824 105.316 33.712 105.732 32.672C106.148 31.616 106.724 30.696 107.46 29.912C108.212 29.128 109.076 28.512 110.052 28.064C111.028 27.616 112.068 27.392 113.172 27.392C114.324 27.392 115.396 27.608 116.388 28.04C117.396 28.472 118.268 29.08 119.004 29.864C119.756 30.632 120.348 31.536 120.78 32.576C121.212 33.616 121.428 34.728 121.428 35.912C121.428 37.08 121.212 38.176 120.78 39.2C120.364 40.208 119.788 41.112 119.052 41.912C118.316 42.696 117.46 43.312 116.484 43.76C115.524 44.192 114.492 44.408 113.388 44.408ZM113.244 42.224C114.076 42.224 114.852 42.064 115.572 41.744C116.308 41.424 116.948 40.976 117.492 40.4C118.036 39.808 118.46 39.136 118.764 38.384C119.084 37.616 119.244 36.784 119.244 35.888C119.244 35.024 119.084 34.216 118.764 33.464C118.46 32.696 118.028 32.024 117.468 31.448C116.924 30.856 116.292 30.392 115.572 30.056C114.852 29.72 114.084 29.552 113.268 29.552C112.452 29.552 111.684 29.72 110.964 30.056C110.244 30.392 109.604 30.848 109.044 31.424C108.5 32 108.068 32.672 107.748 33.44C107.444 34.208 107.292 35.032 107.292 35.912C107.292 36.776 107.444 37.592 107.748 38.36C108.068 39.128 108.5 39.8 109.044 40.376C109.604 40.952 110.236 41.408 110.94 41.744C111.66 42.064 112.428 42.224 113.244 42.224ZM130.967 44.408C129.831 44.408 128.759 44.192 127.751 43.76C126.759 43.328 125.879 42.728 125.111 41.96C124.359 41.176 123.767 40.28 123.335 39.272C122.903 38.264 122.687 37.176 122.687 36.008C122.687 34.824 122.895 33.712 123.311 32.672C123.727 31.616 124.303 30.696 125.039 29.912C125.791 29.128 126.655 28.512 127.631 28.064C128.607 27.616 129.647 27.392 130.751 27.392C131.903 27.392 132.975 27.608 133.967 28.04C134.975 28.472 135.847 29.08 136.583 29.864C137.335 30.632 137.927 31.536 138.359 32.576C138.791 33.616 139.007 34.728 139.007 35.912C139.007 37.08 138.791 38.176 138.359 39.2C137.943 40.208 137.367 41.112 136.631 41.912C135.895 42.696 135.039 43.312 134.062 43.76C133.103 44.192 132.071 44.408 130.967 44.408ZM130.823 42.224C131.655 42.224 132.431 42.064 133.151 41.744C133.887 41.424 134.527 40.976 135.071 40.4C135.615 39.808 136.039 39.136 136.343 38.384C136.663 37.616 136.823 36.784 136.823 35.888C136.823 35.024 136.663 34.216 136.343 33.464C136.039 32.696 135.607 32.024 135.047 31.448C134.503 30.856 133.871 30.392 133.151 30.056C132.431 29.72 131.663 29.552 130.847 29.552C130.031 29.552 129.263 29.72 128.543 30.056C127.823 30.392 127.183 30.848 126.623 31.424C126.079 32 125.647 32.672 125.327 33.44C125.023 34.208 124.871 35.032 124.871 35.912C124.871 36.776 125.023 37.592 125.327 38.36C125.647 39.128 126.079 39.8 126.623 40.376C127.183 40.952 127.815 41.408 128.519 41.744C129.239 42.064 130.007 42.224 130.823 42.224ZM142.377 44.24C142.057 44.24 141.817 44.192 141.657 44.096C141.513 44.016 141.417 43.896 141.369 43.736C141.321 43.576 141.297 43.384 141.297 43.16V28.544C141.297 28.336 141.321 28.152 141.369 27.992C141.433 27.816 141.537 27.688 141.681 27.608C141.841 27.528 142.081 27.488 142.401 27.488C142.721 27.488 142.953 27.536 143.097 27.632C143.257 27.712 143.361 27.832 143.409 27.992C143.457 28.152 143.481 28.344 143.481 28.568V34.376L150.561 27.824C150.753 27.632 150.929 27.504 151.089 27.44C151.249 27.376 151.409 27.376 151.569 27.44C151.729 27.504 151.905 27.632 152.097 27.824C152.401 28.128 152.545 28.392 152.529 28.616C152.529 28.824 152.385 29.064 152.097 29.336L144.945 35.84L152.193 42.392C152.497 42.68 152.649 42.936 152.649 43.16C152.649 43.384 152.497 43.64 152.193 43.928C151.985 44.12 151.801 44.248 151.641 44.312C151.481 44.376 151.321 44.376 151.161 44.312C151.017 44.248 150.849 44.112 150.657 43.904L143.481 37.304V43.184C143.481 43.408 143.457 43.6 143.409 43.76C143.361 43.92 143.257 44.04 143.097 44.12C142.937 44.2 142.697 44.24 142.377 44.24Z" fill="white"/>
<g filter="url(#filter1_d_438_16660)">
<rect x="20" y="61" width="202" height="47" rx="23.5" fill="#B30606"/>
<path d="M86.8 87.15C86.61 87.15 86.465 87.12 86.365 87.06C86.265 87.01 86.2 86.935 86.17 86.835C86.15 86.725 86.14 86.6 86.14 86.46V77.34C86.14 77.21 86.155 77.1 86.185 77.01C86.225 76.91 86.29 76.83 86.38 76.77C86.48 76.71 86.625 76.68 86.815 76.68H90.13C90.62 76.68 91.065 76.755 91.465 76.905C91.875 77.045 92.23 77.255 92.53 77.535C92.83 77.815 93.06 78.17 93.22 78.6C93.39 79.02 93.475 79.51 93.475 80.07C93.475 80.42 93.42 80.785 93.31 81.165C93.2 81.535 93.03 81.885 92.8 82.215C92.58 82.545 92.295 82.82 91.945 83.04C91.595 83.26 91.17 83.385 90.67 83.415H87.49V86.475C87.49 86.615 87.47 86.735 87.43 86.835C87.4 86.935 87.335 87.01 87.235 87.06C87.145 87.12 87 87.15 86.8 87.15ZM93.235 86.985C93.025 87.125 92.845 87.17 92.695 87.12C92.555 87.07 92.42 86.95 92.29 86.76L89.89 82.92L91.375 82.695L93.445 85.995C93.545 86.155 93.605 86.29 93.625 86.4C93.655 86.51 93.635 86.61 93.565 86.7C93.505 86.79 93.395 86.885 93.235 86.985ZM87.49 82.095H90.46C90.69 82.095 90.905 82.055 91.105 81.975C91.305 81.885 91.48 81.755 91.63 81.585C91.78 81.415 91.9 81.205 91.99 80.955C92.08 80.705 92.125 80.405 92.125 80.055C92.125 79.625 92.045 79.26 91.885 78.96C91.735 78.66 91.51 78.435 91.21 78.285C90.91 78.125 90.54 78.045 90.1 78.045H87.49V82.095ZM98.4324 87.225C97.8324 87.225 97.2974 87.125 96.8274 86.925C96.3574 86.725 95.9574 86.455 95.6274 86.115C95.3074 85.765 95.0624 85.365 94.8924 84.915C94.7224 84.465 94.6374 83.98 94.6374 83.46C94.6374 82.77 94.7974 82.155 95.1174 81.615C95.4374 81.075 95.8774 80.65 96.4374 80.34C97.0074 80.02 97.6574 79.86 98.3874 79.86C98.8874 79.86 99.3324 79.94 99.7224 80.1C100.122 80.25 100.462 80.455 100.742 80.715C101.022 80.975 101.237 81.265 101.387 81.585C101.537 81.905 101.612 82.225 101.612 82.545C101.612 83.055 101.492 83.415 101.252 83.625C101.012 83.825 100.717 83.925 100.367 83.925H96.0324C96.0224 84.365 96.1374 84.745 96.3774 85.065C96.6274 85.375 96.9374 85.615 97.3074 85.785C97.6874 85.955 98.0674 86.04 98.4474 86.04C98.7274 86.04 98.9674 86.025 99.1674 85.995C99.3674 85.965 99.5424 85.925 99.6924 85.875C99.8424 85.825 99.9724 85.775 100.082 85.725C100.192 85.675 100.287 85.625 100.367 85.575C100.457 85.525 100.542 85.49 100.622 85.47C100.712 85.45 100.797 85.46 100.877 85.5C100.967 85.53 101.037 85.595 101.087 85.695C101.147 85.775 101.187 85.85 101.207 85.92C101.227 85.99 101.237 86.065 101.237 86.145C101.237 86.285 101.117 86.44 100.877 86.61C100.637 86.78 100.302 86.925 99.8724 87.045C99.4524 87.165 98.9724 87.225 98.4324 87.225ZM96.0324 83.04H99.7974C99.9874 83.04 100.127 83.015 100.217 82.965C100.317 82.915 100.367 82.78 100.367 82.56C100.367 82.28 100.282 82.03 100.112 81.81C99.9424 81.58 99.7074 81.395 99.4074 81.255C99.1174 81.115 98.7824 81.045 98.4024 81.045C97.9624 81.045 97.5574 81.135 97.1874 81.315C96.8274 81.485 96.5424 81.72 96.3324 82.02C96.1224 82.32 96.0224 82.66 96.0324 83.04ZM109.293 87.135C109.073 87.135 108.913 87.09 108.813 87C108.723 86.91 108.668 86.77 108.648 86.58L108.708 85.83C108.608 85.99 108.453 86.175 108.243 86.385C108.033 86.585 107.758 86.765 107.418 86.925C107.078 87.075 106.663 87.15 106.173 87.15C105.693 87.15 105.243 87.055 104.823 86.865C104.413 86.675 104.048 86.41 103.728 86.07C103.418 85.73 103.173 85.34 102.993 84.9C102.823 84.46 102.738 83.99 102.738 83.49C102.738 83 102.823 82.54 102.993 82.11C103.173 81.67 103.423 81.285 103.743 80.955C104.063 80.625 104.428 80.365 104.838 80.175C105.258 79.985 105.703 79.89 106.173 79.89C106.613 79.89 106.988 79.95 107.298 80.07C107.608 80.18 107.873 80.33 108.093 80.52C108.323 80.7 108.523 80.905 108.693 81.135L108.663 80.505C108.653 80.285 108.698 80.13 108.798 80.04C108.908 79.94 109.078 79.89 109.308 79.89C109.498 79.89 109.633 79.92 109.713 79.98C109.803 80.04 109.863 80.125 109.893 80.235C109.923 80.345 109.938 80.48 109.938 80.64V86.43C109.938 86.57 109.923 86.695 109.893 86.805C109.863 86.915 109.803 86.995 109.713 87.045C109.623 87.105 109.483 87.135 109.293 87.135ZM106.398 85.89C106.798 85.89 107.163 85.785 107.493 85.575C107.833 85.365 108.098 85.085 108.288 84.735C108.488 84.375 108.588 83.965 108.588 83.505C108.588 83.035 108.483 82.625 108.273 82.275C108.073 81.915 107.803 81.635 107.463 81.435C107.133 81.225 106.768 81.12 106.368 81.12C105.898 81.12 105.488 81.23 105.138 81.45C104.798 81.66 104.528 81.945 104.328 82.305C104.128 82.665 104.028 83.075 104.028 83.535C104.028 83.985 104.128 84.39 104.328 84.75C104.528 85.1 104.803 85.38 105.153 85.59C105.513 85.79 105.928 85.89 106.398 85.89ZM114.861 87.15C114.411 87.15 113.981 87.06 113.571 86.88C113.161 86.7 112.801 86.445 112.491 86.115C112.191 85.785 111.951 85.4 111.771 84.96C111.601 84.51 111.516 84.02 111.516 83.49C111.516 82.97 111.601 82.49 111.771 82.05C111.951 81.61 112.191 81.23 112.491 80.91C112.801 80.58 113.161 80.325 113.571 80.145C113.981 79.965 114.411 79.875 114.861 79.875C115.351 79.875 115.791 79.965 116.181 80.145C116.581 80.325 116.921 80.58 117.201 80.91C117.491 81.23 117.711 81.615 117.861 82.065C118.011 82.505 118.086 82.985 118.086 83.505C118.096 84.035 118.021 84.52 117.861 84.96C117.711 85.4 117.496 85.785 117.216 86.115C116.936 86.445 116.596 86.7 116.196 86.88C115.806 87.06 115.361 87.15 114.861 87.15ZM115.056 85.875C115.476 85.875 115.851 85.775 116.181 85.575C116.521 85.375 116.786 85.1 116.976 84.75C117.176 84.39 117.276 83.98 117.276 83.52C117.276 83.05 117.176 82.64 116.976 82.29C116.786 81.93 116.521 81.65 116.181 81.45C115.851 81.25 115.476 81.15 115.056 81.15C114.636 81.15 114.256 81.25 113.916 81.45C113.576 81.65 113.306 81.93 113.106 82.29C112.916 82.64 112.821 83.05 112.821 83.52C112.821 83.98 112.916 84.39 113.106 84.75C113.306 85.1 113.576 85.375 113.916 85.575C114.266 85.775 114.646 85.875 115.056 85.875ZM117.996 87.15C117.776 87.15 117.616 87.11 117.516 87.03C117.416 86.95 117.356 86.815 117.336 86.625V77.235C117.336 77.085 117.346 76.96 117.366 76.86C117.396 76.76 117.456 76.685 117.546 76.635C117.646 76.575 117.791 76.545 117.981 76.545C118.171 76.545 118.311 76.575 118.401 76.635C118.501 76.685 118.566 76.76 118.596 76.86C118.626 76.96 118.641 77.08 118.641 77.22V86.46C118.641 86.6 118.626 86.725 118.596 86.835C118.566 86.935 118.506 87.01 118.416 87.06C118.326 87.12 118.186 87.15 117.996 87.15ZM124.864 87.15C124.684 87.15 124.544 87.115 124.444 87.045C124.354 86.985 124.294 86.895 124.264 86.775C124.234 86.645 124.219 86.505 124.219 86.355V77.445C124.219 77.295 124.234 77.165 124.264 77.055C124.304 76.935 124.369 76.845 124.459 76.785C124.559 76.715 124.699 76.68 124.879 76.68H129.064C129.624 76.68 130.114 76.805 130.534 77.055C130.964 77.305 131.299 77.645 131.539 78.075C131.779 78.505 131.894 78.975 131.884 79.485C131.894 79.745 131.864 80 131.794 80.25C131.724 80.5 131.619 80.735 131.479 80.955C131.349 81.165 131.184 81.34 130.984 81.48C131.254 81.65 131.484 81.87 131.674 82.14C131.864 82.41 132.009 82.71 132.109 83.04C132.209 83.37 132.259 83.715 132.259 84.075C132.249 84.505 132.169 84.91 132.019 85.29C131.869 85.66 131.654 85.985 131.374 86.265C131.094 86.545 130.769 86.765 130.399 86.925C130.029 87.075 129.634 87.15 129.214 87.15H124.864ZM125.569 85.86H129.064C129.454 85.86 129.789 85.785 130.069 85.635C130.349 85.485 130.564 85.265 130.714 84.975C130.864 84.685 130.939 84.33 130.939 83.91C130.939 83.55 130.889 83.26 130.789 83.04C130.689 82.82 130.554 82.655 130.384 82.545C130.214 82.425 130.029 82.34 129.829 82.29C129.639 82.24 129.449 82.215 129.259 82.215C129.079 82.205 128.914 82.2 128.764 82.2H127.849C127.649 82.2 127.504 82.15 127.414 82.05C127.324 81.95 127.279 81.79 127.279 81.57C127.279 81.36 127.324 81.21 127.414 81.12C127.514 81.03 127.664 80.985 127.864 80.985H128.779C128.939 80.985 129.119 80.98 129.319 80.97C129.519 80.96 129.714 80.92 129.904 80.85C130.104 80.78 130.264 80.65 130.384 80.46C130.514 80.26 130.579 79.98 130.579 79.62C130.579 79.06 130.429 78.65 130.129 78.39C129.829 78.12 129.334 77.985 128.644 77.985H125.569V85.86ZM137.072 87.24C136.582 87.24 136.112 87.145 135.662 86.955C135.222 86.765 134.827 86.505 134.477 86.175C134.127 85.835 133.852 85.44 133.652 84.99C133.452 84.54 133.352 84.05 133.352 83.52C133.352 83 133.447 82.52 133.637 82.08C133.827 81.63 134.092 81.235 134.432 80.895C134.772 80.555 135.162 80.29 135.602 80.1C136.052 79.9 136.532 79.8 137.042 79.8C137.732 79.8 138.352 79.965 138.902 80.295C139.462 80.615 139.907 81.055 140.237 81.615C140.567 82.175 140.732 82.805 140.732 83.505C140.732 84.055 140.632 84.56 140.432 85.02C140.232 85.47 139.962 85.86 139.622 86.19C139.282 86.52 138.892 86.78 138.452 86.97C138.012 87.15 137.552 87.24 137.072 87.24ZM137.042 85.935C137.462 85.935 137.852 85.83 138.212 85.62C138.572 85.41 138.862 85.12 139.082 84.75C139.302 84.38 139.412 83.96 139.412 83.49C139.412 83.02 139.307 82.605 139.097 82.245C138.897 81.885 138.617 81.605 138.257 81.405C137.897 81.205 137.487 81.105 137.027 81.105C136.587 81.105 136.187 81.21 135.827 81.42C135.477 81.63 135.192 81.915 134.972 82.275C134.762 82.635 134.657 83.045 134.657 83.505C134.657 83.985 134.767 84.41 134.987 84.78C135.207 85.14 135.497 85.425 135.857 85.635C136.227 85.835 136.622 85.935 137.042 85.935ZM145.465 87.24C144.975 87.24 144.505 87.145 144.055 86.955C143.615 86.765 143.22 86.505 142.87 86.175C142.52 85.835 142.245 85.44 142.045 84.99C141.845 84.54 141.745 84.05 141.745 83.52C141.745 83 141.84 82.52 142.03 82.08C142.22 81.63 142.485 81.235 142.825 80.895C143.165 80.555 143.555 80.29 143.995 80.1C144.445 79.9 144.925 79.8 145.435 79.8C146.125 79.8 146.745 79.965 147.295 80.295C147.855 80.615 148.3 81.055 148.63 81.615C148.96 82.175 149.125 82.805 149.125 83.505C149.125 84.055 149.025 84.56 148.825 85.02C148.625 85.47 148.355 85.86 148.015 86.19C147.675 86.52 147.285 86.78 146.845 86.97C146.405 87.15 145.945 87.24 145.465 87.24ZM145.435 85.935C145.855 85.935 146.245 85.83 146.605 85.62C146.965 85.41 147.255 85.12 147.475 84.75C147.695 84.38 147.805 83.96 147.805 83.49C147.805 83.02 147.7 82.605 147.49 82.245C147.29 81.885 147.01 81.605 146.65 81.405C146.29 81.205 145.88 81.105 145.42 81.105C144.98 81.105 144.58 81.21 144.22 81.42C143.87 81.63 143.585 81.915 143.365 82.275C143.155 82.635 143.05 83.045 143.05 83.505C143.05 83.985 143.16 84.41 143.38 84.78C143.6 85.14 143.89 85.425 144.25 85.635C144.62 85.835 145.015 85.935 145.435 85.935ZM156.154 85.98C156.344 86.13 156.444 86.275 156.454 86.415C156.474 86.555 156.404 86.72 156.244 86.91C156.124 87.05 156.014 87.14 155.914 87.18C155.824 87.23 155.729 87.235 155.629 87.195C155.529 87.165 155.414 87.095 155.284 86.985L151.894 84.225V86.475C151.894 86.615 151.874 86.735 151.834 86.835C151.804 86.935 151.744 87.01 151.654 87.06C151.564 87.12 151.419 87.15 151.219 87.15C151.039 87.15 150.899 87.12 150.799 87.06C150.699 87.01 150.634 86.935 150.604 86.835C150.584 86.725 150.574 86.6 150.574 86.46V77.205C150.574 77.065 150.589 76.945 150.619 76.845C150.649 76.745 150.714 76.67 150.814 76.62C150.914 76.56 151.054 76.53 151.234 76.53C151.434 76.53 151.579 76.56 151.669 76.62C151.759 76.67 151.819 76.75 151.849 76.86C151.879 76.96 151.894 77.08 151.894 77.22V82.53L154.369 80.16C154.479 80.05 154.584 79.975 154.684 79.935C154.794 79.885 154.899 79.875 154.999 79.905C155.109 79.935 155.219 80.015 155.329 80.145C155.509 80.345 155.594 80.515 155.584 80.655C155.584 80.785 155.494 80.935 155.314 81.105L152.884 83.4L156.154 85.98ZM160.328 87.225C160.088 87.225 159.838 87.2 159.578 87.15C159.318 87.1 159.063 87.03 158.813 86.94C158.573 86.84 158.358 86.725 158.168 86.595C157.988 86.465 157.853 86.32 157.763 86.16C157.713 86.06 157.683 85.97 157.673 85.89C157.663 85.8 157.678 85.715 157.718 85.635C157.758 85.555 157.818 85.475 157.898 85.395C157.998 85.275 158.098 85.22 158.198 85.23C158.298 85.23 158.423 85.295 158.573 85.425C158.683 85.495 158.813 85.575 158.963 85.665C159.113 85.745 159.268 85.82 159.428 85.89C159.588 85.95 159.748 86.005 159.908 86.055C160.078 86.095 160.243 86.115 160.403 86.115C160.863 86.115 161.233 86.03 161.513 85.86C161.793 85.68 161.933 85.445 161.933 85.155C161.933 84.985 161.898 84.84 161.828 84.72C161.758 84.6 161.663 84.5 161.543 84.42C161.423 84.33 161.288 84.255 161.138 84.195C160.988 84.135 160.818 84.08 160.628 84.03C160.448 83.97 160.268 83.915 160.088 83.865C159.818 83.795 159.553 83.715 159.293 83.625C159.033 83.535 158.798 83.42 158.588 83.28C158.378 83.13 158.208 82.945 158.078 82.725C157.948 82.495 157.883 82.205 157.883 81.855C157.883 81.445 157.988 81.09 158.198 80.79C158.408 80.49 158.703 80.26 159.083 80.1C159.463 79.93 159.908 79.845 160.418 79.845C160.638 79.845 160.843 79.86 161.033 79.89C161.223 79.92 161.403 79.97 161.573 80.04C161.753 80.1 161.923 80.175 162.083 80.265C162.243 80.345 162.398 80.445 162.548 80.565C162.728 80.685 162.823 80.815 162.833 80.955C162.843 81.095 162.788 81.24 162.668 81.39C162.578 81.52 162.478 81.605 162.368 81.645C162.258 81.675 162.148 81.645 162.038 81.555C161.878 81.435 161.708 81.33 161.528 81.24C161.348 81.15 161.163 81.075 160.973 81.015C160.783 80.955 160.588 80.925 160.388 80.925C160.138 80.925 159.913 80.965 159.713 81.045C159.523 81.115 159.373 81.225 159.263 81.375C159.163 81.515 159.113 81.675 159.113 81.855C159.113 82.015 159.153 82.145 159.233 82.245C159.323 82.345 159.433 82.43 159.563 82.5C159.703 82.57 159.863 82.635 160.043 82.695C160.233 82.745 160.428 82.795 160.628 82.845C160.918 82.915 161.213 83 161.513 83.1C161.823 83.19 162.098 83.315 162.338 83.475C162.588 83.625 162.788 83.83 162.938 84.09C163.098 84.34 163.178 84.675 163.178 85.095C163.178 85.755 162.918 86.275 162.398 86.655C161.878 87.035 161.188 87.225 160.328 87.225Z" fill="#F8F8F8"/>
</g>
<defs>
<filter id="filter0_d_438_16660" x="0" y="0" width="243" height="186" filterUnits="userSpaceOnUse" color-interpolation-filters="sRGB">
<feFlood flood-opacity="0" result="BackgroundImageFix"/>
<feColorMatrix in="SourceAlpha" type="matrix" values="0 0 0 0 0 0 0 0 0 0 0 0 0 0 0 0 0 0 127 0" result="hardAlpha"/>
<feOffset dy="9"/>
<feGaussianBlur stdDeviation="4.5"/>
<feColorMatrix type="matrix" values="0 0 0 0 0 0 0 0 0 0 0 0 0 0 0 0 0 0 0.16 0"/>
<feBlend mode="normal" in2="BackgroundImageFix" result="effect1_dropShadow_438_16660"/>
<feBlend mode="normal" in="SourceGraphic" in2="effect1_dropShadow_438_16660" result="shape"/>
</filter>
<filter id="filter1_d_438_16660" x="10" y="59" width="222" height="67" filterUnits="userSpaceOnUse" color-interpolation-filters="sRGB">
<feFlood flood-opacity="0" result="BackgroundImageFix"/>
<feColorMatrix in="SourceAlpha" type="matrix" values="0 0 0 0 0 0 0 0 0 0 0 0 0 0 0 0 0 0 127 0" result="hardAlpha"/>
<feOffset dy="8"/>
<feGaussianBlur stdDeviation="5"/>
<feComposite in2="hardAlpha" operator="out"/>
<feColorMatrix type="matrix" values="0 0 0 0 0 0 0 0 0 0 0 0 0 0 0 0 0 0 0.5 0"/>
<feBlend mode="normal" in2="BackgroundImageFix" result="effect1_dropShadow_438_16660"/>
<feBlend mode="normal" in="SourceGraphic" in2="effect1_dropShadow_438_16660" result="shape"/>
</filter>
</defs>
</svg>
